<svg aria-roledescription="flowchart-v2" role="graphics-document document" viewBox="-8 -8 710.171875 1255.703125" style="max-width: 710.172px; background-color: white;" xmlns:xlink="http://www.w3.org/1999/xlink" xmlns="http://www.w3.org/2000/svg" width="100%" id="my-svg"><style>#my-svg{font-family:"trebuchet ms",verdana,arial,sans-serif;font-size:16px;fill:#ccc;}#my-svg .error-icon{fill:#a44141;}#my-svg .error-text{fill:#ddd;stroke:#ddd;}#my-svg .edge-thickness-normal{stroke-width:2px;}#my-svg .edge-thickness-thick{stroke-width:3.5px;}#my-svg .edge-pattern-solid{stroke-dasharray:0;}#my-svg .edge-pattern-dashed{stroke-dasharray:3;}#my-svg .edge-pattern-dotted{stroke-dasharray:2;}#my-svg .marker{fill:lightgrey;stroke:lightgrey;}#my-svg .marker.cross{stroke:lightgrey;}#my-svg svg{font-family:"trebuchet ms",verdana,arial,sans-serif;font-size:16px;}#my-svg .label{font-family:"trebuchet ms",verdana,arial,sans-serif;color:#ccc;}#my-svg .cluster-label text{fill:#F9FFFE;}#my-svg .cluster-label span,#my-svg p{color:#F9FFFE;}#my-svg .label text,#my-svg span,#my-svg p{fill:#ccc;color:#ccc;}#my-svg .node rect,#my-svg .node circle,#my-svg .node ellipse,#my-svg .node polygon,#my-svg .node path{fill:#1f2020;stroke:#81B1DB;stroke-width:1px;}#my-svg .flowchart-label text{text-anchor:middle;}#my-svg .node .katex path{fill:#000;stroke:#000;stroke-width:1px;}#my-svg .node .label{text-align:center;}#my-svg .node.clickable{cursor:pointer;}#my-svg .arrowheadPath{fill:lightgrey;}#my-svg .edgePath .path{stroke:lightgrey;stroke-width:2.0px;}#my-svg .flowchart-link{stroke:lightgrey;fill:none;}#my-svg .edgeLabel{background-color:hsl(0, 0%, 34.4117647059%);text-align:center;}#my-svg .edgeLabel rect{opacity:0.5;background-color:hsl(0, 0%, 34.4117647059%);fill:hsl(0, 0%, 34.4117647059%);}#my-svg .labelBkg{background-color:rgba(87.75, 87.75, 87.75, 0.5);}#my-svg .cluster rect{fill:hsl(180, 1.5873015873%, 28.3529411765%);stroke:rgba(255, 255, 255, 0.25);stroke-width:1px;}#my-svg .cluster text{fill:#F9FFFE;}#my-svg .cluster span,#my-svg p{color:#F9FFFE;}#my-svg div.mermaidTooltip{position:absolute;text-align:center;max-width:200px;padding:2px;font-family:"trebuchet ms",verdana,arial,sans-serif;font-size:12px;background:hsl(20, 1.5873015873%, 12.3529411765%);border:1px solid rgba(255, 255, 255, 0.25);border-radius:2px;pointer-events:none;z-index:100;}#my-svg .flowchartTitleText{text-anchor:middle;font-size:18px;fill:#ccc;}#my-svg :root{--mermaid-font-family:"trebuchet ms",verdana,arial,sans-serif;}</style><g><marker orient="auto" markerHeight="12" markerWidth="12" markerUnits="userSpaceOnUse" refY="5" refX="6" viewBox="0 0 10 10" class="marker flowchart" id="my-svg_flowchart-pointEnd"><path style="stroke-width: 1; stroke-dasharray: 1, 0;" class="arrowMarkerPath" d="M 0 0 L 10 5 L 0 10 z"/></marker><marker orient="auto" markerHeight="12" markerWidth="12" markerUnits="userSpaceOnUse" refY="5" refX="4.5" viewBox="0 0 10 10" class="marker flowchart" id="my-svg_flowchart-pointStart"><path style="stroke-width: 1; stroke-dasharray: 1, 0;" class="arrowMarkerPath" d="M 0 5 L 10 10 L 10 0 z"/></marker><marker orient="auto" markerHeight="11" markerWidth="11" markerUnits="userSpaceOnUse" refY="5" refX="11" viewBox="0 0 10 10" class="marker flowchart" id="my-svg_flowchart-circleEnd"><circle style="stroke-width: 1; stroke-dasharray: 1, 0;" class="arrowMarkerPath" r="5" cy="5" cx="5"/></marker><marker orient="auto" markerHeight="11" markerWidth="11" markerUnits="userSpaceOnUse" refY="5" refX="-1" viewBox="0 0 10 10" class="marker flowchart" id="my-svg_flowchart-circleStart"><circle style="stroke-width: 1; stroke-dasharray: 1, 0;" class="arrowMarkerPath" r="5" cy="5" cx="5"/></marker><marker orient="auto" markerHeight="11" markerWidth="11" markerUnits="userSpaceOnUse" refY="5.2" refX="12" viewBox="0 0 11 11" class="marker cross flowchart" id="my-svg_flowchart-crossEnd"><path style="stroke-width: 2; stroke-dasharray: 1, 0;" class="arrowMarkerPath" d="M 1,1 l 9,9 M 10,1 l -9,9"/></marker><marker orient="auto" markerHeight="11" markerWidth="11" markerUnits="userSpaceOnUse" refY="5.2" refX="-1" viewBox="0 0 11 11" class="marker cross flowchart" id="my-svg_flowchart-crossStart"><path style="stroke-width: 2; stroke-dasharray: 1, 0;" class="arrowMarkerPath" d="M 1,1 l 9,9 M 10,1 l -9,9"/></marker><g class="root"><g class="clusters"/><g class="edgePaths"><path marker-end="url(#my-svg_flowchart-pointEnd)" style="fill:none;" class="edge-thickness-normal edge-pattern-solid flowchart-link LS-A LE-B" id="L-A-B-0" d="M503.383,53L503.383,57.167C503.383,61.333,503.383,69.667,503.383,77.117C503.383,84.567,503.383,91.133,503.383,94.417L503.383,97.7"/><path marker-end="url(#my-svg_flowchart-pointEnd)" style="fill:none;" class="edge-thickness-normal edge-pattern-solid flowchart-link LS-B LE-C" id="L-B-C-0" d="M503.383,156L503.383,160.167C503.383,164.333,503.383,172.667,503.383,180.117C503.383,187.567,503.383,194.133,503.383,197.417L503.383,200.7"/><path marker-end="url(#my-svg_flowchart-pointEnd)" style="fill:none;" class="edge-thickness-normal edge-pattern-solid flowchart-link LS-C LE-D" id="L-C-D-0" d="M419.523,256.565L403.59,261.138C387.656,265.71,355.789,274.855,339.855,282.711C323.922,290.567,323.922,297.133,323.922,300.417L323.922,303.7"/><path marker-end="url(#my-svg_flowchart-pointEnd)" style="fill:none;" class="edge-thickness-normal edge-pattern-solid flowchart-link LS-D LE-E" id="L-D-E-0" d="M323.922,362L323.922,367.75C323.922,373.5,323.922,385,323.922,395.617C323.922,406.233,323.922,415.967,323.922,420.833L323.922,425.7"/><path marker-end="url(#my-svg_flowchart-pointEnd)" style="fill:none;" class="edge-thickness-normal edge-pattern-solid flowchart-link LS-E LE-F" id="L-E-F-0" d="M323.922,484L323.922,488.167C323.922,492.333,323.922,500.667,344.319,517.463C364.717,534.26,405.511,559.52,425.909,572.15L446.306,584.78"/><path marker-end="url(#my-svg_flowchart-pointEnd)" style="fill:none;" class="edge-thickness-normal edge-pattern-solid flowchart-link LS-F LE-C" id="L-F-C-0" d="M556.953,587.57L577.935,574.475C598.917,561.38,640.88,535.19,661.862,513.512C682.844,491.833,682.844,474.667,682.844,455.917C682.844,437.167,682.844,416.833,682.844,396.5C682.844,376.167,682.844,355.833,682.844,337.083C682.844,318.333,682.844,301.167,667.759,288.255C652.675,275.342,622.506,266.685,607.421,262.356L592.337,258.027"/><path marker-end="url(#my-svg_flowchart-pointEnd)" style="fill:none;" class="edge-thickness-normal edge-pattern-solid flowchart-link LS-F LE-G" id="L-F-G-0" d="M503.883,706.203L503.799,711.87C503.716,717.536,503.549,728.87,503.466,739.403C503.383,749.936,503.383,759.67,503.383,764.536L503.383,769.403"/><path marker-end="url(#my-svg_flowchart-pointEnd)" style="fill:none;" class="edge-thickness-normal edge-pattern-solid flowchart-link LS-G LE-H" id="L-G-H-0" d="M503.383,827.703L503.383,831.87C503.383,836.036,503.383,844.37,503.383,851.82C503.383,859.27,503.383,865.836,503.383,869.12L503.383,872.403"/><path marker-end="url(#my-svg_flowchart-pointEnd)" style="fill:none;" class="edge-thickness-normal edge-pattern-solid flowchart-link LS-H LE-I" id="L-H-I-0" d="M503.383,930.703L503.383,934.87C503.383,939.036,503.383,947.37,503.383,954.82C503.383,962.27,503.383,968.836,503.383,972.12L503.383,975.403"/><path marker-end="url(#my-svg_flowchart-pointEnd)" style="fill:none;" class="edge-thickness-normal edge-pattern-solid flowchart-link LS-I LE-J" id="L-I-J-0" d="M503.383,1033.703L503.383,1037.87C503.383,1042.036,503.383,1050.37,503.383,1057.82C503.383,1065.27,503.383,1071.836,503.383,1075.12L503.383,1078.403"/><path marker-end="url(#my-svg_flowchart-pointEnd)" style="fill:none;" class="edge-thickness-normal edge-pattern-solid flowchart-link LS-J LE-K" id="L-J-K-0" d="M503.383,1136.703L503.383,1140.87C503.383,1145.036,503.383,1153.37,503.383,1160.82C503.383,1168.27,503.383,1174.836,503.383,1178.12L503.383,1181.403"/></g><g class="edgeLabels"><g class="edgeLabel"><g transform="translate(0, 0)" class="label"><foreignObject height="0" width="0"><div style="display: inline-block; white-space: nowrap;" xmlns="http://www.w3.org/1999/xhtml"><span class="edgeLabel"></span></div></foreignObject></g></g><g class="edgeLabel"><g transform="translate(0, 0)" class="label"><foreignObject height="0" width="0"><div style="display: inline-block; white-space: nowrap;" xmlns="http://www.w3.org/1999/xhtml"><span class="edgeLabel"></span></div></foreignObject></g></g><g class="edgeLabel"><g transform="translate(0, 0)" class="label"><foreignObject height="0" width="0"><div style="display: inline-block; white-space: nowrap;" xmlns="http://www.w3.org/1999/xhtml"><span class="edgeLabel"></span></div></foreignObject></g></g><g class="edgeLabel"><g transform="translate(0, 0)" class="label"><foreignObject height="0" width="0"><div style="display: inline-block; white-space: nowrap;" xmlns="http://www.w3.org/1999/xhtml"><span class="edgeLabel"></span></div></foreignObject></g></g><g class="edgeLabel"><g transform="translate(0, 0)" class="label"><foreignObject height="0" width="0"><div style="display: inline-block; white-space: nowrap;" xmlns="http://www.w3.org/1999/xhtml"><span class="edgeLabel"></span></div></foreignObject></g></g><g transform="translate(682.84375, 396.5)" class="edgeLabel"><g transform="translate(-11.328125, -9.5)" class="label"><foreignObject height="19" width="22.65625"><div style="display: inline-block; white-space: nowrap;" xmlns="http://www.w3.org/1999/xhtml"><span class="edgeLabel">Yes</span></div></foreignObject></g></g><g transform="translate(503.3828125, 740.203125)" class="edgeLabel"><g transform="translate(-9.3984375, -9.5)" class="label"><foreignObject height="19" width="18.796875"><div style="display: inline-block; white-space: nowrap;" xmlns="http://www.w3.org/1999/xhtml"><span class="edgeLabel">No</span></div></foreignObject></g></g><g class="edgeLabel"><g transform="translate(0, 0)" class="label"><foreignObject height="0" width="0"><div style="display: inline-block; white-space: nowrap;" xmlns="http://www.w3.org/1999/xhtml"><span class="edgeLabel"></span></div></foreignObject></g></g><g class="edgeLabel"><g transform="translate(0, 0)" class="label"><foreignObject height="0" width="0"><div style="display: inline-block; white-space: nowrap;" xmlns="http://www.w3.org/1999/xhtml"><span class="edgeLabel"></span></div></foreignObject></g></g><g class="edgeLabel"><g transform="translate(0, 0)" class="label"><foreignObject height="0" width="0"><div style="display: inline-block; white-space: nowrap;" xmlns="http://www.w3.org/1999/xhtml"><span class="edgeLabel"></span></div></foreignObject></g></g><g class="edgeLabel"><g transform="translate(0, 0)" class="label"><foreignObject height="0" width="0"><div style="display: inline-block; white-space: nowrap;" xmlns="http://www.w3.org/1999/xhtml"><span class="edgeLabel"></span></div></foreignObject></g></g></g><g class="nodes"><g transform="translate(503.3828125, 26.5)" data-id="A" data-node="true" id="flowchart-A-0" class="node default default flowchart-label"><rect height="53" width="162.140625" y="-26.5" x="-81.0703125" ry="0" rx="0" style="fill:#e3f2fd;" class="basic label-container"/><g transform="translate(-73.5703125, -19)" style="" class="label"><rect/><foreignObject height="38" width="147.140625"><div style="display: inline-block; white-space: nowrap;" xmlns="http://www.w3.org/1999/xhtml"><span class="nodeLabel">POST /invocations<br />User Prompt or Alert</span></div></foreignObject></g></g><g transform="translate(503.3828125, 129.5)" data-id="B" data-node="true" id="flowchart-B-1" class="node default default flowchart-label"><rect height="53" width="190.875" y="-26.5" x="-95.4375" ry="0" rx="0" style="fill:#f3e5f5;" class="basic label-container"/><g transform="translate(-87.9375, -19)" style="" class="label"><rect/><foreignObject height="38" width="175.875"><div style="display: inline-block; white-space: nowrap;" xmlns="http://www.w3.org/1999/xhtml"><span class="nodeLabel">Initialize Graph State<br />Incident Context &amp; Tools</span></div></foreignObject></g></g><g transform="translate(503.3828125, 232.5)" data-id="C" data-node="true" id="flowchart-C-3" class="node default default flowchart-label"><rect height="53" width="167.71875" y="-26.5" x="-83.859375" ry="0" rx="0" style="fill:#fff3e0;" class="basic label-container"/><g transform="translate(-76.359375, -19)" style="" class="label"><rect/><foreignObject height="38" width="152.71875"><div style="display: inline-block; white-space: nowrap;" xmlns="http://www.w3.org/1999/xhtml"><span class="nodeLabel">Supervisor Node<br />Select next specialist</span></div></foreignObject></g></g><g transform="translate(323.921875, 335.5)" data-id="D" data-node="true" id="flowchart-D-5" class="node default default flowchart-label"><rect height="53" width="647.84375" y="-26.5" x="-323.921875" ry="0" rx="0" style="" class="basic label-container"/><g transform="translate(-316.421875, -19)" style="" class="label"><rect/><foreignObject height="38" width="632.84375"><div style="display: inline-block; white-space: nowrap;" xmlns="http://www.w3.org/1999/xhtml"><span class="nodeLabel">Specialist Step<br />kubernetes_agent OR metrics_agent OR logs_agent OR runbooks_agent OR github_agent</span></div></foreignObject></g></g><g transform="translate(323.921875, 457.5)" data-id="E" data-node="true" id="flowchart-E-7" class="node default default flowchart-label"><rect height="53" width="208.71875" y="-26.5" x="-104.359375" ry="0" rx="0" style="fill:#f3e5f5;" class="basic label-container"/><g transform="translate(-96.859375, -19)" style="" class="label"><rect/><foreignObject height="38" width="193.71875"><div style="display: inline-block; white-space: nowrap;" xmlns="http://www.w3.org/1999/xhtml"><span class="nodeLabel">Supervisor Checkpoint<br />Review evidence and route</span></div></foreignObject></g></g><g transform="translate(503.3828125, 619.8515625)" data-id="F" data-node="true" id="flowchart-F-9" class="node default default flowchart-label"><polygon style="" transform="translate(-85.8515625,85.8515625)" class="label-container" points="85.8515625,0 171.703125,-85.8515625 85.8515625,-171.703125 0,-85.8515625"/><g transform="translate(-51.8515625, -19)" style="" class="label"><rect/><foreignObject height="38" width="103.703125"><div style="display: inline-block; white-space: nowrap;" xmlns="http://www.w3.org/1999/xhtml"><span class="nodeLabel">More Evidence<br />Needed?</span></div></foreignObject></g></g><g transform="translate(503.3828125, 801.203125)" data-id="G" data-node="true" id="flowchart-G-13" class="node default default flowchart-label"><rect height="53" width="188" y="-26.5" x="-94" ry="0" rx="0" style="fill:#e8f5e9;" class="basic label-container"/><g transform="translate(-86.5, -19)" style="" class="label"><rect/><foreignObject height="38" width="173"><div style="display: inline-block; white-space: nowrap;" xmlns="http://www.w3.org/1999/xhtml"><span class="nodeLabel">Aggregate Node<br />Generate final summary</span></div></foreignObject></g></g><g transform="translate(503.3828125, 904.203125)" data-id="H" data-node="true" id="flowchart-H-15" class="node default default flowchart-label"><rect height="53" width="252.953125" y="-26.5" x="-126.4765625" ry="0" rx="0" style="fill:#fce4ec;" class="basic label-container"/><g transform="translate(-118.9765625, -19)" style="" class="label"><rect/><foreignObject height="38" width="237.953125"><div style="display: inline-block; white-space: nowrap;" xmlns="http://www.w3.org/1999/xhtml"><span class="nodeLabel">Persist incident summary<br />and timeline events (PostgreSQL)</span></div></foreignObject></g></g><g transform="translate(503.3828125, 1007.203125)" data-id="I" data-node="true" id="flowchart-I-17" class="node default default flowchart-label"><rect height="53" width="231.953125" y="-26.5" x="-115.9765625" ry="0" rx="0" style="fill:#fce4ec;" class="basic label-container"/><g transform="translate(-108.4765625, -19)" style="" class="label"><rect/><foreignObject height="38" width="216.953125"><div style="display: inline-block; white-space: nowrap;" xmlns="http://www.w3.org/1999/xhtml"><span class="nodeLabel">Store live state/logs<br />for follow-up (Redis + DB logs)</span></div></foreignObject></g></g><g transform="translate(503.3828125, 1110.203125)" data-id="J" data-node="true" id="flowchart-J-19" class="node default default flowchart-label"><rect height="53" width="132.578125" y="-26.5" x="-66.2890625" ry="0" rx="0" style="fill:#e3f2fd;" class="basic label-container"/><g transform="translate(-58.7890625, -19)" style="" class="label"><rect/><foreignObject height="38" width="117.578125"><div style="display: inline-block; white-space: nowrap;" xmlns="http://www.w3.org/1999/xhtml"><span class="nodeLabel">Return Response<br />to Dashboard</span></div></foreignObject></g></g><g transform="translate(503.3828125, 1213.203125)" data-id="K" data-node="true" id="flowchart-K-21" class="node default default flowchart-label"><rect height="53" width="152.453125" y="-26.5" x="-76.2265625" ry="0" rx="0" style="" class="basic label-container"/><g transform="translate(-68.7265625, -19)" style="" class="label"><rect/><foreignObject height="38" width="137.453125"><div style="display: inline-block; white-space: nowrap;" xmlns="http://www.w3.org/1999/xhtml"><span class="nodeLabel">Dashboard Updates<br />Incident Panel</span></div></foreignObject></g></g></g></g></g></svg>