<svg aria-roledescription="flowchart-v2" role="graphics-document document" viewBox="-8 -8 3220.02734375 527" style="max-width: 3220.03px; background-color: white;" xmlns:xlink="http://www.w3.org/1999/xlink" xmlns="http://www.w3.org/2000/svg" width="100%" id="my-svg"><style>#my-svg{font-family:"trebuchet ms",verdana,arial,sans-serif;font-size:16px;fill:#ccc;}#my-svg .error-icon{fill:#a44141;}#my-svg .error-text{fill:#ddd;stroke:#ddd;}#my-svg .edge-thickness-normal{stroke-width:2px;}#my-svg .edge-thickness-thick{stroke-width:3.5px;}#my-svg .edge-pattern-solid{stroke-dasharray:0;}#my-svg .edge-pattern-dashed{stroke-dasharray:3;}#my-svg .edge-pattern-dotted{stroke-dasharray:2;}#my-svg .marker{fill:lightgrey;stroke:lightgrey;}#my-svg .marker.cross{stroke:lightgrey;}#my-svg svg{font-family:"trebuchet ms",verdana,arial,sans-serif;font-size:16px;}#my-svg .label{font-family:"trebuchet ms",verdana,arial,sans-serif;color:#ccc;}#my-svg .cluster-label text{fill:#F9FFFE;}#my-svg .cluster-label span,#my-svg p{color:#F9FFFE;}#my-svg .label text,#my-svg span,#my-svg p{fill:#ccc;color:#ccc;}#my-svg .node rect,#my-svg .node circle,#my-svg .node ellipse,#my-svg .node polygon,#my-svg .node path{fill:#1f2020;stroke:#81B1DB;stroke-width:1px;}#my-svg .flowchart-label text{text-anchor:middle;}#my-svg .node .katex path{fill:#000;stroke:#000;stroke-width:1px;}#my-svg .node .label{text-align:center;}#my-svg .node.clickable{cursor:pointer;}#my-svg .arrowheadPath{fill:lightgrey;}#my-svg .edgePath .path{stroke:lightgrey;stroke-width:2.0px;}#my-svg .flowchart-link{stroke:lightgrey;fill:none;}#my-svg .edgeLabel{background-color:hsl(0, 0%, 34.4117647059%);text-align:center;}#my-svg .edgeLabel rect{opacity:0.5;background-color:hsl(0, 0%, 34.4117647059%);fill:hsl(0, 0%, 34.4117647059%);}#my-svg .labelBkg{background-color:rgba(87.75, 87.75, 87.75, 0.5);}#my-svg .cluster rect{fill:hsl(180, 1.5873015873%, 28.3529411765%);stroke:rgba(255, 255, 255, 0.25);stroke-width:1px;}#my-svg .cluster text{fill:#F9FFFE;}#my-svg .cluster span,#my-svg p{color:#F9FFFE;}#my-svg div.mermaidTooltip{position:absolute;text-align:center;max-width:200px;padding:2px;font-family:"trebuchet ms",verdana,arial,sans-serif;font-size:12px;background:hsl(20, 1.5873015873%, 12.3529411765%);border:1px solid rgba(255, 255, 255, 0.25);border-radius:2px;pointer-events:none;z-index:100;}#my-svg .flowchartTitleText{text-anchor:middle;font-size:18px;fill:#ccc;}#my-svg :root{--mermaid-font-family:"trebuchet ms",verdana,arial,sans-serif;}</style><g><marker orient="auto" markerHeight="12" markerWidth="12" markerUnits="userSpaceOnUse" refY="5" refX="6" viewBox="0 0 10 10" class="marker flowchart" id="my-svg_flowchart-pointEnd"><path style="stroke-width: 1; stroke-dasharray: 1, 0;" class="arrowMarkerPath" d="M 0 0 L 10 5 L 0 10 z"/></marker><marker orient="auto" markerHeight="12" markerWidth="12" markerUnits="userSpaceOnUse" refY="5" refX="4.5" viewBox="0 0 10 10" class="marker flowchart" id="my-svg_flowchart-pointStart"><path style="stroke-width: 1; stroke-dasharray: 1, 0;" class="arrowMarkerPath" d="M 0 5 L 10 10 L 10 0 z"/></marker><marker orient="auto" markerHeight="11" markerWidth="11" markerUnits="userSpaceOnUse" refY="5" refX="11" viewBox="0 0 10 10" class="marker flowchart" id="my-svg_flowchart-circleEnd"><circle style="stroke-width: 1; stroke-dasharray: 1, 0;" class="arrowMarkerPath" r="5" cy="5" cx="5"/></marker><marker orient="auto" markerHeight="11" markerWidth="11" markerUnits="userSpaceOnUse" refY="5" refX="-1" viewBox="0 0 10 10" class="marker flowchart" id="my-svg_flowchart-circleStart"><circle style="stroke-width: 1; stroke-dasharray: 1, 0;" class="arrowMarkerPath" r="5" cy="5" cx="5"/></marker><marker orient="auto" markerHeight="11" markerWidth="11" markerUnits="userSpaceOnUse" refY="5.2" refX="12" viewBox="0 0 11 11" class="marker cross flowchart" id="my-svg_flowchart-crossEnd"><path style="stroke-width: 2; stroke-dasharray: 1, 0;" class="arrowMarkerPath" d="M 1,1 l 9,9 M 10,1 l -9,9"/></marker><marker orient="auto" markerHeight="11" markerWidth="11" markerUnits="userSpaceOnUse" refY="5.2" refX="-1" viewBox="0 0 11 11" class="marker cross flowchart" id="my-svg_flowchart-crossStart"><path style="stroke-width: 2; stroke-dasharray: 1, 0;" class="arrowMarkerPath" d="M 1,1 l 9,9 M 10,1 l -9,9"/></marker><g class="root"><g class="clusters"><g id="Models" class="cluster default flowchart-label"><rect height="141" width="1585.62890625" y="370" x="1544.90234375" ry="0" rx="0" style="fill:#e3f2fd;"/><g transform="translate(2280.998046875, 370)" class="cluster-label"><foreignObject height="38" width="113.4375"><div style="display: inline-block; white-space: nowrap;" xmlns="http://www.w3.org/1999/xhtml"><span class="nodeLabel">Backend Models<br />&amp; Schemas</span></div></foreignObject></g></g><g id="Auth" class="cluster default flowchart-label"><rect height="141" width="1524.90234375" y="370" x="0" ry="0" rx="0" style="fill:#fff3e0;"/><g transform="translate(693.912109375, 370)" class="cluster-label"><foreignObject height="19" width="137.078125"><div style="display: inline-block; white-space: nowrap;" xmlns="http://www.w3.org/1999/xhtml"><span class="nodeLabel">Auth Dependencies</span></div></foreignObject></g></g><g id="Routes" class="cluster default flowchart-label"><rect height="217" width="3190.3203125" y="103" x="13.70703125" ry="0" rx="0" style="fill:#f3e5f5;"/><g transform="translate(1560.7578125, 103)" class="cluster-label"><foreignObject height="19" width="96.21875"><div style="display: inline-block; white-space: nowrap;" xmlns="http://www.w3.org/1999/xhtml"><span class="nodeLabel">API v1 Routes</span></div></foreignObject></g></g></g><g class="edgePaths"><path marker-end="url(#my-svg_flowchart-pointEnd)" style="fill:none;" class="edge-thickness-normal edge-pattern-solid flowchart-link LS-CL LE-AD" id="L-CL-AD-0" d="M175.238,273.828L162.896,281.523C150.555,289.219,125.871,304.609,113.529,316.471C101.188,328.333,101.188,336.667,101.188,345C101.188,353.333,101.188,361.667,219.659,375.677C338.13,389.686,575.073,409.373,693.544,419.216L812.015,429.059"/><path marker-end="url(#my-svg_flowchart-pointEnd)" style="fill:none;" class="edge-thickness-normal edge-pattern-solid flowchart-link LS-INC LE-AD" id="L-INC-AD-0" d="M532.19,257L518.612,267.5C505.034,278,477.878,299,464.301,313.667C450.723,328.333,450.723,336.667,398.505,345C346.286,353.333,241.85,361.667,302.066,375.592C362.282,389.516,587.149,409.033,699.583,418.791L812.017,428.549"/><path marker-end="url(#my-svg_flowchart-pointEnd)" style="fill:none;" class="edge-thickness-normal edge-pattern-solid flowchart-link LS-JOB LE-AD" id="L-JOB-AD-0" d="M889.389,247.5L870.806,259.583C852.223,271.667,815.057,295.833,796.474,312.083C777.891,328.333,777.891,336.667,695.233,345C612.576,353.333,447.26,361.667,452.95,375.161C458.639,388.655,635.333,407.309,723.679,416.636L812.026,425.964"/><path marker-end="url(#my-svg_flowchart-pointEnd)" style="fill:none;" class="edge-thickness-normal edge-pattern-solid flowchart-link LS-MET LE-AD" id="L-MET-AD-0" d="M1639.441,238L1639.441,251.667C1639.441,265.333,1639.441,292.667,1639.441,310.5C1639.441,328.333,1639.441,336.667,1502.227,345C1365.012,353.333,1090.582,361.667,963.479,371.171C836.376,380.675,856.6,391.351,866.712,396.688L876.824,402.026"/><path marker-end="url(#my-svg_flowchart-pointEnd)" style="fill:none;" class="edge-thickness-normal edge-pattern-solid flowchart-link LS-SLO LE-AD" id="L-SLO-AD-0" d="M1232.448,266.5L1217.714,275.417C1202.98,284.333,1173.511,302.167,1158.777,315.25C1144.043,328.333,1144.043,336.667,1031.504,345C918.965,353.333,693.887,361.667,638.555,374.22C583.223,386.773,697.638,403.546,754.846,411.933L812.053,420.319"/><path marker-end="url(#my-svg_flowchart-pointEnd)" style="fill:none;" class="edge-thickness-normal edge-pattern-solid flowchart-link LS-ALERT LE-AD" id="L-ALERT-AD-0" d="M1868.762,238L1868.762,251.667C1868.762,265.333,1868.762,292.667,1868.762,310.5C1868.762,328.333,1868.762,336.667,1714.104,345C1559.445,353.333,1250.129,361.667,1096.086,370.707C942.043,379.747,943.273,389.494,943.888,394.368L944.503,399.242"/><path marker-end="url(#my-svg_flowchart-pointEnd)" style="fill:none;" class="edge-thickness-normal edge-pattern-solid flowchart-link LS-MC LE-AD" id="L-MC-AD-0" d="M2054.323,276L2046.362,283.333C2038.4,290.667,2022.478,305.333,2014.516,316.833C2006.555,328.333,2006.555,336.667,1832.264,345C1657.974,353.333,1309.393,361.667,1134.335,370.711C959.276,379.755,957.74,389.51,956.972,394.387L956.204,399.265"/><path marker-end="url(#my-svg_flowchart-pointEnd)" style="fill:none;" class="edge-thickness-normal edge-pattern-solid flowchart-link LS-ANALYTICS LE-AD" id="L-ANALYTICS-AD-0" d="M2397.753,238L2379.574,251.667C2361.394,265.333,2325.035,292.667,2306.855,310.5C2288.676,328.333,2288.676,336.667,2090.331,345C1891.986,353.333,1495.296,361.667,1285.605,371.205C1075.914,380.744,1053.223,391.488,1041.878,396.86L1030.532,402.232"/><path marker-end="url(#my-svg_flowchart-pointEnd)" style="fill:none;" class="edge-thickness-normal edge-pattern-solid flowchart-link LS-CHAT LE-AD" id="L-CHAT-AD-0" d="M2713.316,238L2694.641,251.667C2675.966,265.333,2638.616,292.667,2619.941,310.5C2601.266,328.333,2601.266,336.667,2378.21,345C2155.155,353.333,1709.044,361.667,1456.716,372.422C1204.388,383.178,1145.842,396.355,1116.569,402.944L1087.296,409.533"/><path marker-end="url(#my-svg_flowchart-pointEnd)" style="fill:none;" class="edge-thickness-normal edge-pattern-solid flowchart-link LS-RECO LE-AD" id="L-RECO-AD-0" d="M3022.769,238L3002.345,251.667C2981.922,265.333,2941.074,292.667,2920.65,310.5C2900.227,328.333,2900.227,336.667,2655.388,345C2410.549,353.333,1920.872,361.667,1618.729,374.224C1316.587,386.781,1201.978,403.563,1144.673,411.953L1087.369,420.344"/><path marker-end="url(#my-svg_flowchart-pointEnd)" style="fill:none;" class="edge-thickness-normal edge-pattern-solid flowchart-link LS-CL LE-OM" id="L-CL-OM-0" d="M375.16,281.237L384.421,287.698C393.681,294.158,412.202,307.079,421.462,317.706C430.723,328.333,430.723,336.667,631.594,345C832.465,353.333,1234.207,361.667,1435.078,369.117C1635.949,376.567,1635.949,383.133,1635.949,386.417L1635.949,389.7"/><path marker-end="url(#my-svg_flowchart-pointEnd)" style="fill:none;" class="edge-thickness-normal edge-pattern-solid flowchart-link LS-INC LE-IM" id="L-INC-IM-0" d="M661.002,257L677.15,267.5C693.298,278,725.595,299,741.743,313.667C757.891,328.333,757.891,336.667,935.378,345C1112.865,353.333,1467.839,361.667,1650.339,369.48C1832.84,377.294,1842.867,384.588,1847.881,388.235L1852.895,391.882"/><path marker-end="url(#my-svg_flowchart-pointEnd)" style="fill:none;" class="edge-thickness-normal edge-pattern-solid flowchart-link LS-JOB LE-IM" id="L-JOB-IM-0" d="M1004.242,247.5L1024.208,259.583C1044.175,271.667,1084.109,295.833,1104.076,312.083C1124.043,328.333,1124.043,336.667,1273.719,345C1423.396,353.333,1722.749,361.667,1867.102,369.499C2011.456,377.331,2000.81,384.663,1995.488,388.328L1990.165,391.994"/><path marker-end="url(#my-svg_flowchart-pointEnd)" style="fill:none;" class="edge-thickness-normal edge-pattern-solid flowchart-link LS-SLO LE-HM" id="L-SLO-HM-0" d="M1398.383,266.5L1410.55,275.417C1422.717,284.333,1447.052,302.167,1459.219,315.25C1471.387,328.333,1471.387,336.667,1591.182,345C1710.977,353.333,1950.566,361.667,2154.807,376.219C2359.047,390.771,2527.938,411.541,2612.384,421.926L2696.829,432.312"/><path marker-end="url(#my-svg_flowchart-pointEnd)" style="fill:none;" class="edge-thickness-normal edge-pattern-solid flowchart-link LS-MC LE-HM" id="L-MC-HM-0" d="M2210.146,276L2219.901,283.333C2229.656,290.667,2249.166,305.333,2258.921,316.833C2268.676,328.333,2268.676,336.667,2323.386,345C2378.096,353.333,2487.517,361.667,2558.939,372.911C2630.361,384.155,2663.785,398.31,2680.497,405.387L2697.209,412.464"/><path marker-end="url(#my-svg_flowchart-pointEnd)" style="fill:none;" class="edge-thickness-normal edge-pattern-solid flowchart-link LS-ANALYTICS LE-HM" id="L-ANALYTICS-HM-0" d="M2469.215,238L2487.89,251.667C2506.565,265.333,2543.916,292.667,2562.591,310.5C2581.266,328.333,2581.266,336.667,2611.921,345C2642.577,353.333,2703.888,361.667,2734.46,369.117C2765.033,376.567,2764.866,383.134,2764.783,386.418L2764.699,389.702"/><path marker-end="url(#my-svg_flowchart-pointEnd)" style="fill:none;" class="edge-thickness-normal edge-pattern-solid flowchart-link LS-CHAT LE-IM" id="L-CHAT-IM-0" d="M2781.449,238L2797.912,251.667C2814.375,265.333,2847.301,292.667,2863.764,310.5C2880.227,328.333,2880.227,336.667,2892.325,345C2904.423,353.333,2928.62,361.667,2784.05,376.525C2639.48,391.383,2326.144,412.765,2169.475,423.457L2012.807,434.148"/><path marker-end="url(#my-svg_flowchart-pointEnd)" style="fill:none;" class="edge-thickness-normal edge-pattern-solid flowchart-link LS-RECO LE-HM" id="L-RECO-HM-0" d="M3064.813,238L3066.073,251.667C3067.333,265.333,3069.852,292.667,3071.111,310.5C3072.371,328.333,3072.371,336.667,3072.371,345C3072.371,353.333,3072.371,361.667,3031.959,375.055C2991.547,388.443,2910.722,406.886,2870.31,416.107L2829.898,425.329"/><path marker-end="url(#my-svg_flowchart-pointEnd)" style="fill:none;" class="edge-thickness-normal edge-pattern-solid flowchart-link LS-Dashboard LE-CL" id="L-Dashboard-CL-0" d="M1502.473,29.58L1297.927,37.65C1093.382,45.72,684.29,61.86,479.745,74.097C275.199,86.333,275.199,94.667,275.199,102.117C275.199,109.567,275.199,116.133,275.199,119.417L275.199,122.7"/><path marker-end="url(#my-svg_flowchart-pointEnd)" style="fill:none;" class="edge-thickness-normal edge-pattern-solid flowchart-link LS-Dashboard LE-INC" id="L-Dashboard-INC-0" d="M1502.473,30.563L1350.565,38.469C1198.658,46.375,894.842,62.188,742.935,74.261C591.027,86.333,591.027,94.667,591.027,108.45C591.027,122.233,591.027,141.467,591.027,151.083L591.027,160.7"/><path marker-end="url(#my-svg_flowchart-pointEnd)" style="fill:none;" class="edge-thickness-normal edge-pattern-solid flowchart-link LS-Dashboard LE-JOB" id="L-Dashboard-JOB-0" d="M1502.473,32.824L1409.52,40.353C1316.566,47.883,1130.66,62.941,1037.707,74.637C944.754,86.333,944.754,94.667,944.754,110.033C944.754,125.4,944.754,147.8,944.754,159L944.754,170.2"/><path marker-end="url(#my-svg_flowchart-pointEnd)" style="fill:none;" class="edge-thickness-normal edge-pattern-solid flowchart-link LS-Dashboard LE-SLO" id="L-Dashboard-SLO-0" d="M1502.473,42.132L1472.616,48.11C1442.759,54.088,1383.046,66.044,1353.189,76.189C1323.332,86.333,1323.332,94.667,1323.332,106.867C1323.332,119.067,1323.332,135.133,1323.332,143.167L1323.332,151.2"/><path marker-end="url(#my-svg_flowchart-pointEnd)" style="fill:none;" class="edge-thickness-normal edge-pattern-solid flowchart-link LS-Dashboard LE-MET" id="L-Dashboard-MET-0" d="M1610.85,53L1615.615,57.167C1620.38,61.333,1629.911,69.667,1634.676,78C1639.441,86.333,1639.441,94.667,1639.441,111.617C1639.441,128.567,1639.441,154.133,1639.441,166.917L1639.441,179.7"/><path marker-end="url(#my-svg_flowchart-pointEnd)" style="fill:none;" class="edge-thickness-normal edge-pattern-solid flowchart-link LS-Dashboard LE-ALERT" id="L-Dashboard-ALERT-0" d="M1658.613,40.45L1693.638,46.708C1728.663,52.967,1798.712,65.483,1833.737,75.908C1868.762,86.333,1868.762,94.667,1868.762,111.617C1868.762,128.567,1868.762,154.133,1868.762,166.917L1868.762,179.7"/><path marker-end="url(#my-svg_flowchart-pointEnd)" style="fill:none;" class="edge-thickness-normal edge-pattern-solid flowchart-link LS-Dashboard LE-MC" id="L-Dashboard-MC-0" d="M1658.613,33.894L1736.236,41.245C1813.858,48.596,1969.103,63.298,2046.725,74.816C2124.348,86.333,2124.348,94.667,2124.348,105.283C2124.348,115.9,2124.348,128.8,2124.348,135.25L2124.348,141.7"/><path marker-end="url(#my-svg_flowchart-pointEnd)" style="fill:none;" class="edge-thickness-normal edge-pattern-solid flowchart-link LS-Dashboard LE-ANALYTICS" id="L-Dashboard-ANALYTICS-0" d="M1658.613,31.216L1787.678,39.014C1916.743,46.811,2174.874,62.405,2303.939,74.369C2433.004,86.333,2433.004,94.667,2433.004,111.617C2433.004,128.567,2433.004,154.133,2433.004,166.917L2433.004,179.7"/><path marker-end="url(#my-svg_flowchart-pointEnd)" style="fill:none;" class="edge-thickness-normal edge-pattern-solid flowchart-link LS-Dashboard LE-CHAT" id="L-Dashboard-CHAT-0" d="M1658.613,29.939L1840.432,37.95C2022.251,45.96,2385.889,61.98,2567.708,74.157C2749.527,86.333,2749.527,94.667,2749.527,111.617C2749.527,128.567,2749.527,154.133,2749.527,166.917L2749.527,179.7"/><path marker-end="url(#my-svg_flowchart-pointEnd)" style="fill:none;" class="edge-thickness-normal edge-pattern-solid flowchart-link LS-Dashboard LE-RECO" id="L-Dashboard-RECO-0" d="M1658.613,29.213L1892.573,37.344C2126.533,45.476,2594.452,61.738,2828.411,74.036C3062.371,86.333,3062.371,94.667,3062.371,111.617C3062.371,128.567,3062.371,154.133,3062.371,166.917L3062.371,179.7"/></g><g class="edgeLabels"><g class="edgeLabel"><g transform="translate(0, 0)" class="label"><foreignObject height="0" width="0"><div style="display: inline-block; white-space: nowrap;" xmlns="http://www.w3.org/1999/xhtml"><span class="edgeLabel"></span></div></foreignObject></g></g><g class="edgeLabel"><g transform="translate(0, 0)" class="label"><foreignObject height="0" width="0"><div style="display: inline-block; white-space: nowrap;" xmlns="http://www.w3.org/1999/xhtml"><span class="edgeLabel"></span></div></foreignObject></g></g><g class="edgeLabel"><g transform="translate(0, 0)" class="label"><foreignObject height="0" width="0"><div style="display: inline-block; white-space: nowrap;" xmlns="http://www.w3.org/1999/xhtml"><span class="edgeLabel"></span></div></foreignObject></g></g><g class="edgeLabel"><g transform="translate(0, 0)" class="label"><foreignObject height="0" width="0"><div style="display: inline-block; white-space: nowrap;" xmlns="http://www.w3.org/1999/xhtml"><span class="edgeLabel"></span></div></foreignObject></g></g><g class="edgeLabel"><g transform="translate(0, 0)" class="label"><foreignObject height="0" width="0"><div style="display: inline-block; white-space: nowrap;" xmlns="http://www.w3.org/1999/xhtml"><span class="edgeLabel"></span></div></foreignObject></g></g><g class="edgeLabel"><g transform="translate(0, 0)" class="label"><foreignObject height="0" width="0"><div style="display: inline-block; white-space: nowrap;" xmlns="http://www.w3.org/1999/xhtml"><span class="edgeLabel"></span></div></foreignObject></g></g><g class="edgeLabel"><g transform="translate(0, 0)" class="label"><foreignObject height="0" width="0"><div style="display: inline-block; white-space: nowrap;" xmlns="http://www.w3.org/1999/xhtml"><span class="edgeLabel"></span></div></foreignObject></g></g><g class="edgeLabel"><g transform="translate(0, 0)" class="label"><foreignObject height="0" width="0"><div style="display: inline-block; white-space: nowrap;" xmlns="http://www.w3.org/1999/xhtml"><span class="edgeLabel"></span></div></foreignObject></g></g><g class="edgeLabel"><g transform="translate(0, 0)" class="label"><foreignObject height="0" width="0"><div style="display: inline-block; white-space: nowrap;" xmlns="http://www.w3.org/1999/xhtml"><span class="edgeLabel"></span></div></foreignObject></g></g><g class="edgeLabel"><g transform="translate(0, 0)" class="label"><foreignObject height="0" width="0"><div style="display: inline-block; white-space: nowrap;" xmlns="http://www.w3.org/1999/xhtml"><span class="edgeLabel"></span></div></foreignObject></g></g><g class="edgeLabel"><g transform="translate(0, 0)" class="label"><foreignObject height="0" width="0"><div style="display: inline-block; white-space: nowrap;" xmlns="http://www.w3.org/1999/xhtml"><span class="edgeLabel"></span></div></foreignObject></g></g><g class="edgeLabel"><g transform="translate(0, 0)" class="label"><foreignObject height="0" width="0"><div style="display: inline-block; white-space: nowrap;" xmlns="http://www.w3.org/1999/xhtml"><span class="edgeLabel"></span></div></foreignObject></g></g><g class="edgeLabel"><g transform="translate(0, 0)" class="label"><foreignObject height="0" width="0"><div style="display: inline-block; white-space: nowrap;" xmlns="http://www.w3.org/1999/xhtml"><span class="edgeLabel"></span></div></foreignObject></g></g><g class="edgeLabel"><g transform="translate(0, 0)" class="label"><foreignObject height="0" width="0"><div style="display: inline-block; white-space: nowrap;" xmlns="http://www.w3.org/1999/xhtml"><span class="edgeLabel"></span></div></foreignObject></g></g><g class="edgeLabel"><g transform="translate(0, 0)" class="label"><foreignObject height="0" width="0"><div style="display: inline-block; white-space: nowrap;" xmlns="http://www.w3.org/1999/xhtml"><span class="edgeLabel"></span></div></foreignObject></g></g><g class="edgeLabel"><g transform="translate(0, 0)" class="label"><foreignObject height="0" width="0"><div style="display: inline-block; white-space: nowrap;" xmlns="http://www.w3.org/1999/xhtml"><span class="edgeLabel"></span></div></foreignObject></g></g><g class="edgeLabel"><g transform="translate(0, 0)" class="label"><foreignObject height="0" width="0"><div style="display: inline-block; white-space: nowrap;" xmlns="http://www.w3.org/1999/xhtml"><span class="edgeLabel"></span></div></foreignObject></g></g><g class="edgeLabel"><g transform="translate(0, 0)" class="label"><foreignObject height="0" width="0"><div style="display: inline-block; white-space: nowrap;" xmlns="http://www.w3.org/1999/xhtml"><span class="edgeLabel"></span></div></foreignObject></g></g><g class="edgeLabel"><g transform="translate(0, 0)" class="label"><foreignObject height="0" width="0"><div style="display: inline-block; white-space: nowrap;" xmlns="http://www.w3.org/1999/xhtml"><span class="edgeLabel"></span></div></foreignObject></g></g><g class="edgeLabel"><g transform="translate(0, 0)" class="label"><foreignObject height="0" width="0"><div style="display: inline-block; white-space: nowrap;" xmlns="http://www.w3.org/1999/xhtml"><span class="edgeLabel"></span></div></foreignObject></g></g><g class="edgeLabel"><g transform="translate(0, 0)" class="label"><foreignObject height="0" width="0"><div style="display: inline-block; white-space: nowrap;" xmlns="http://www.w3.org/1999/xhtml"><span class="edgeLabel"></span></div></foreignObject></g></g><g class="edgeLabel"><g transform="translate(0, 0)" class="label"><foreignObject height="0" width="0"><div style="display: inline-block; white-space: nowrap;" xmlns="http://www.w3.org/1999/xhtml"><span class="edgeLabel"></span></div></foreignObject></g></g><g class="edgeLabel"><g transform="translate(0, 0)" class="label"><foreignObject height="0" width="0"><div style="display: inline-block; white-space: nowrap;" xmlns="http://www.w3.org/1999/xhtml"><span class="edgeLabel"></span></div></foreignObject></g></g><g class="edgeLabel"><g transform="translate(0, 0)" class="label"><foreignObject height="0" width="0"><div style="display: inline-block; white-space: nowrap;" xmlns="http://www.w3.org/1999/xhtml"><span class="edgeLabel"></span></div></foreignObject></g></g><g class="edgeLabel"><g transform="translate(0, 0)" class="label"><foreignObject height="0" width="0"><div style="display: inline-block; white-space: nowrap;" xmlns="http://www.w3.org/1999/xhtml"><span class="edgeLabel"></span></div></foreignObject></g></g><g class="edgeLabel"><g transform="translate(0, 0)" class="label"><foreignObject height="0" width="0"><div style="display: inline-block; white-space: nowrap;" xmlns="http://www.w3.org/1999/xhtml"><span class="edgeLabel"></span></div></foreignObject></g></g><g class="edgeLabel"><g transform="translate(0, 0)" class="label"><foreignObject height="0" width="0"><div style="display: inline-block; white-space: nowrap;" xmlns="http://www.w3.org/1999/xhtml"><span class="edgeLabel"></span></div></foreignObject></g></g><g class="edgeLabel"><g transform="translate(0, 0)" class="label"><foreignObject height="0" width="0"><div style="display: inline-block; white-space: nowrap;" xmlns="http://www.w3.org/1999/xhtml"><span class="edgeLabel"></span></div></foreignObject></g></g></g><g class="nodes"><g transform="translate(1635.94921875, 440.5)" data-id="OM" data-node="true" id="flowchart-OM-11" class="node default default flowchart-label"><rect height="91" width="112.09375" y="-45.5" x="-56.046875" ry="0" rx="0" style="" class="basic label-container"/><g transform="translate(-48.546875, -38)" style="" class="label"><rect/><foreignObject height="76" width="97.09375"><div style="display: inline-block; white-space: nowrap;" xmlns="http://www.w3.org/1999/xhtml"><span class="nodeLabel">Organization<br />User<br />Cluster<br />auth schemas</span></div></foreignObject></g></g><g transform="translate(1919.73046875, 440.5)" data-id="IM" data-node="true" id="flowchart-IM-12" class="node default default flowchart-label"><rect height="91" width="175.578125" y="-45.5" x="-87.7890625" ry="0" rx="0" style="" class="basic label-container"/><g transform="translate(-80.2890625, -38)" style="" class="label"><rect/><foreignObject height="76" width="160.578125"><div style="display: inline-block; white-space: nowrap;" xmlns="http://www.w3.org/1999/xhtml"><span class="nodeLabel">Incident<br />IncidentTimelineEvent<br />Job<br />transcript schemas</span></div></foreignObject></g></g><g transform="translate(2763.41015625, 440.5)" data-id="HM" data-node="true" id="flowchart-HM-13" class="node default default flowchart-label"><rect height="91" width="122.640625" y="-45.5" x="-61.3203125" ry="0" rx="0" style="" class="basic label-container"/><g transform="translate(-53.8203125, -38)" style="" class="label"><rect/><foreignObject height="76" width="107.640625"><div style="display: inline-block; white-space: nowrap;" xmlns="http://www.w3.org/1999/xhtml"><span class="nodeLabel">AuditLog<br />AuditEvent<br />SLO<br />status schemas</span></div></foreignObject></g></g><g transform="translate(949.7109375, 440.5)" data-id="AD" data-node="true" id="flowchart-AD-10" class="node default default flowchart-label"><rect height="72" width="264.828125" y="-36" x="-132.4140625" ry="0" rx="0" style="" class="basic label-container"/><g transform="translate(-124.9140625, -28.5)" style="" class="label"><rect/><foreignObject height="57" width="249.828125"><div style="display: inline-block; white-space: nowrap;" xmlns="http://www.w3.org/1999/xhtml"><span class="nodeLabel">get_current_user_and_org<br />require_admin<br />cluster token auth (webhook/jobs)</span></div></foreignObject></g></g><g transform="translate(275.19921875, 211.5)" data-id="CL" data-node="true" id="flowchart-CL-0" class="node default default flowchart-label"><rect height="167" width="199.921875" y="-83.5" x="-99.9609375" ry="0" rx="0" style="" class="basic label-container"/><g transform="translate(-92.4609375, -76)" style="" class="label"><rect/><foreignObject height="152" width="184.921875"><div style="display: inline-block; white-space: nowrap;" xmlns="http://www.w3.org/1999/xhtml"><span class="nodeLabel">clusters.py<br />POST /clusters<br />GET /clusters<br />GET /clusters/{id}/health<br />DELETE /clusters/{id}<br />GET /clusters/{id}/lock<br />POST /clusters/{id}/lock<br />GET /clusters/{id}/audit</span></div></foreignObject></g></g><g transform="translate(591.02734375, 211.5)" data-id="INC" data-node="true" id="flowchart-INC-1" class="node default default flowchart-label"><rect height="91" width="301.296875" y="-45.5" x="-150.6484375" ry="0" rx="0" style="" class="basic label-container"/><g transform="translate(-143.1484375, -38)" style="" class="label"><rect/><foreignObject height="76" width="286.296875"><div style="display: inline-block; white-space: nowrap;" xmlns="http://www.w3.org/1999/xhtml"><span class="nodeLabel">incidents.py<br />GET /clusters/{cluster_id}/incidents<br />POST /clusters/{cluster_id}/trigger<br />DELETE /clusters/{cluster_id}/incidents</span></div></foreignObject></g></g><g transform="translate(944.75390625, 211.5)" data-id="JOB" data-node="true" id="flowchart-JOB-2" class="node default default flowchart-label"><rect height="72" width="306.15625" y="-36" x="-153.078125" ry="0" rx="0" style="" class="basic label-container"/><g transform="translate(-145.578125, -28.5)" style="" class="label"><rect/><foreignObject height="57" width="291.15625"><div style="display: inline-block; white-space: nowrap;" xmlns="http://www.w3.org/1999/xhtml"><span class="nodeLabel">jobs.py<br />POST /clusters/{cluster_id}/jobs/trigger<br />GET /clusters/{cluster_id}/jobs</span></div></foreignObject></g></g><g transform="translate(1639.44140625, 211.5)" data-id="MET" data-node="true" id="flowchart-MET-3" class="node default default flowchart-label"><rect height="53" width="181.21875" y="-26.5" x="-90.609375" ry="0" rx="0" style="" class="basic label-container"/><g transform="translate(-83.109375, -19)" style="" class="label"><rect/><foreignObject height="38" width="166.21875"><div style="display: inline-block; white-space: nowrap;" xmlns="http://www.w3.org/1999/xhtml"><span class="nodeLabel">metrics.py<br />GET /metrics/snapshot</span></div></foreignObject></g></g><g transform="translate(1323.33203125, 211.5)" data-id="SLO" data-node="true" id="flowchart-SLO-4" class="node default default flowchart-label"><rect height="110" width="351" y="-55" x="-175.5" ry="0" rx="0" style="" class="basic label-container"/><g transform="translate(-168, -47.5)" style="" class="label"><rect/><foreignObject height="95" width="336"><div style="display: inline-block; white-space: nowrap;" xmlns="http://www.w3.org/1999/xhtml"><span class="nodeLabel">slos.py<br />POST /clusters/{cluster_id}/slos<br />GET /clusters/{cluster_id}/slos<br />GET /clusters/{cluster_id}/slos/{slo_id}/status<br />DELETE /clusters/{cluster_id}/slos/{slo_id}</span></div></foreignObject></g></g><g transform="translate(1868.76171875, 211.5)" data-id="ALERT" data-node="true" id="flowchart-ALERT-5" class="node default default flowchart-label"><rect height="53" width="177.421875" y="-26.5" x="-88.7109375" ry="0" rx="0" style="" class="basic label-container"/><g transform="translate(-81.2109375, -19)" style="" class="label"><rect/><foreignObject height="38" width="162.421875"><div style="display: inline-block; white-space: nowrap;" xmlns="http://www.w3.org/1999/xhtml"><span class="nodeLabel">alerts.py<br />POST /alerts/webhook</span></div></foreignObject></g></g><g transform="translate(2124.34765625, 211.5)" data-id="MC" data-node="true" id="flowchart-MC-6" class="node default default flowchart-label"><rect height="129" width="233.75" y="-64.5" x="-116.875" ry="0" rx="0" style="" class="basic label-container"/><g transform="translate(-109.375, -57)" style="" class="label"><rect/><foreignObject height="114" width="218.75"><div style="display: inline-block; white-space: nowrap;" xmlns="http://www.w3.org/1999/xhtml"><span class="nodeLabel">mission_control.py<br />GET /incidents/{id}/transcript<br />GET /incidents/{id}/logs<br />POST /incidents/{id}/message<br />GET /incidents/{id}/status<br />POST /incidents/{id}/approve</span></div></foreignObject></g></g><g transform="translate(2433.00390625, 211.5)" data-id="ANALYTICS" data-node="true" id="flowchart-ANALYTICS-7" class="node default default flowchart-label"><rect height="53" width="283.5625" y="-26.5" x="-141.78125" ry="0" rx="0" style="" class="basic label-container"/><g transform="translate(-134.28125, -19)" style="" class="label"><rect/><foreignObject height="38" width="268.5625"><div style="display: inline-block; white-space: nowrap;" xmlns="http://www.w3.org/1999/xhtml"><span class="nodeLabel">analytics.py<br />Cluster trend and analytics endpoints</span></div></foreignObject></g></g><g transform="translate(2749.52734375, 211.5)" data-id="CHAT" data-node="true" id="flowchart-CHAT-8" class="node default default flowchart-label"><rect height="53" width="249.484375" y="-26.5" x="-124.7421875" ry="0" rx="0" style="" class="basic label-container"/><g transform="translate(-117.2421875, -19)" style="" class="label"><rect/><foreignObject height="38" width="234.484375"><div style="display: inline-block; white-space: nowrap;" xmlns="http://www.w3.org/1999/xhtml"><span class="nodeLabel">chat.py<br />General assistant chat endpoints</span></div></foreignObject></g></g><g transform="translate(3062.37109375, 211.5)" data-id="RECO" data-node="true" id="flowchart-RECO-9" class="node default default flowchart-label"><rect height="53" width="213.3125" y="-26.5" x="-106.65625" ry="0" rx="0" style="" class="basic label-container"/><g transform="translate(-99.15625, -19)" style="" class="label"><rect/><foreignObject height="38" width="198.3125"><div style="display: inline-block; white-space: nowrap;" xmlns="http://www.w3.org/1999/xhtml"><span class="nodeLabel">recommendations.py<br />Recommendation endpoints</span></div></foreignObject></g></g><g transform="translate(1580.54296875, 26.5)" data-id="Dashboard" data-node="true" id="flowchart-Dashboard-14" class="node default default flowchart-label"><rect height="53" width="156.140625" y="-26.5" x="-78.0703125" ry="0" rx="0" style="fill:#e8f5e9;" class="basic label-container"/><g transform="translate(-70.5703125, -19)" style="" class="label"><rect/><foreignObject height="38" width="141.140625"><div style="display: inline-block; white-space: nowrap;" xmlns="http://www.w3.org/1999/xhtml"><span class="nodeLabel">Dashboard<br />via Next.js rewrites</span></div></foreignObject></g></g></g></g></g></svg>