<svg aria-roledescription="flowchart-v2" role="graphics-document document" viewBox="-8 -8 386.734375 2209.78125" style="max-width: 386.734px; background-color: white;" xmlns:xlink="http://www.w3.org/1999/xlink" xmlns="http://www.w3.org/2000/svg" width="100%" id="my-svg"><style>#my-svg{font-family:"trebuchet ms",verdana,arial,sans-serif;font-size:16px;fill:#ccc;}#my-svg .error-icon{fill:#a44141;}#my-svg .error-text{fill:#ddd;stroke:#ddd;}#my-svg .edge-thickness-normal{stroke-width:2px;}#my-svg .edge-thickness-thick{stroke-width:3.5px;}#my-svg .edge-pattern-solid{stroke-dasharray:0;}#my-svg .edge-pattern-dashed{stroke-dasharray:3;}#my-svg .edge-pattern-dotted{stroke-dasharray:2;}#my-svg .marker{fill:lightgrey;stroke:lightgrey;}#my-svg .marker.cross{stroke:lightgrey;}#my-svg svg{font-family:"trebuchet ms",verdana,arial,sans-serif;font-size:16px;}#my-svg .label{font-family:"trebuchet ms",verdana,arial,sans-serif;color:#ccc;}#my-svg .cluster-label text{fill:#F9FFFE;}#my-svg .cluster-label span,#my-svg p{color:#F9FFFE;}#my-svg .label text,#my-svg span,#my-svg p{fill:#ccc;color:#ccc;}#my-svg .node rect,#my-svg .node circle,#my-svg .node ellipse,#my-svg .node polygon,#my-svg .node path{fill:#1f2020;stroke:#81B1DB;stroke-width:1px;}#my-svg .flowchart-label text{text-anchor:middle;}#my-svg .node .katex path{fill:#000;stroke:#000;stroke-width:1px;}#my-svg .node .label{text-align:center;}#my-svg .node.clickable{cursor:pointer;}#my-svg .arrowheadPath{fill:lightgrey;}#my-svg .edgePath .path{stroke:lightgrey;stroke-width:2.0px;}#my-svg .flowchart-link{stroke:lightgrey;fill:none;}#my-svg .edgeLabel{background-color:hsl(0, 0%, 34.4117647059%);text-align:center;}#my-svg .edgeLabel rect{opacity:0.5;background-color:hsl(0, 0%, 34.4117647059%);fill:hsl(0, 0%, 34.4117647059%);}#my-svg .labelBkg{background-color:rgba(87.75, 87.75, 87.75, 0.5);}#my-svg .cluster rect{fill:hsl(180, 1.5873015873%, 28.3529411765%);stroke:rgba(255, 255, 255, 0.25);stroke-width:1px;}#my-svg .cluster text{fill:#F9FFFE;}#my-svg .cluster span,#my-svg p{color:#F9FFFE;}#my-svg div.mermaidTooltip{position:absolute;text-align:center;max-width:200px;padding:2px;font-family:"trebuchet ms",verdana,arial,sans-serif;font-size:12px;background:hsl(20, 1.5873015873%, 12.3529411765%);border:1px solid rgba(255, 255, 255, 0.25);border-radius:2px;pointer-events:none;z-index:100;}#my-svg .flowchartTitleText{text-anchor:middle;font-size:18px;fill:#ccc;}#my-svg :root{--mermaid-font-family:"trebuchet ms",verdana,arial,sans-serif;}</style><g><marker orient="auto" markerHeight="12" markerWidth="12" markerUnits="userSpaceOnUse" refY="5" refX="6" viewBox="0 0 10 10" class="marker flowchart" id="my-svg_flowchart-pointEnd"><path style="stroke-width: 1; stroke-dasharray: 1, 0;" class="arrowMarkerPath" d="M 0 0 L 10 5 L 0 10 z"/></marker><marker orient="auto" markerHeight="12" markerWidth="12" markerUnits="userSpaceOnUse" refY="5" refX="4.5" viewBox="0 0 10 10" class="marker flowchart" id="my-svg_flowchart-pointStart"><path style="stroke-width: 1; stroke-dasharray: 1, 0;" class="arrowMarkerPath" d="M 0 5 L 10 10 L 10 0 z"/></marker><marker orient="auto" markerHeight="11" markerWidth="11" markerUnits="userSpaceOnUse" refY="5" refX="11" viewBox="0 0 10 10" class="marker flowchart" id="my-svg_flowchart-circleEnd"><circle style="stroke-width: 1; stroke-dasharray: 1, 0;" class="arrowMarkerPath" r="5" cy="5" cx="5"/></marker><marker orient="auto" markerHeight="11" markerWidth="11" markerUnits="userSpaceOnUse" refY="5" refX="-1" viewBox="0 0 10 10" class="marker flowchart" id="my-svg_flowchart-circleStart"><circle style="stroke-width: 1; stroke-dasharray: 1, 0;" class="arrowMarkerPath" r="5" cy="5" cx="5"/></marker><marker orient="auto" markerHeight="11" markerWidth="11" markerUnits="userSpaceOnUse" refY="5.2" refX="12" viewBox="0 0 11 11" class="marker cross flowchart" id="my-svg_flowchart-crossEnd"><path style="stroke-width: 2; stroke-dasharray: 1, 0;" class="arrowMarkerPath" d="M 1,1 l 9,9 M 10,1 l -9,9"/></marker><marker orient="auto" markerHeight="11" markerWidth="11" markerUnits="userSpaceOnUse" refY="5.2" refX="-1" viewBox="0 0 11 11" class="marker cross flowchart" id="my-svg_flowchart-crossStart"><path style="stroke-width: 2; stroke-dasharray: 1, 0;" class="arrowMarkerPath" d="M 1,1 l 9,9 M 10,1 l -9,9"/></marker><g class="root"><g class="clusters"/><g class="edgePaths"><path marker-end="url(#my-svg_flowchart-pointEnd)" style="fill:none;" class="edge-thickness-normal edge-pattern-solid flowchart-link LS-Start LE-Check" id="L-Start-Check-0" d="M181.836,72L181.836,76.167C181.836,80.333,181.836,88.667,181.902,96.2C181.968,103.734,182.1,110.467,182.166,113.834L182.232,117.201"/><path marker-end="url(#my-svg_flowchart-pointEnd)" style="fill:none;" class="edge-thickness-normal edge-pattern-solid flowchart-link LS-Check LE-Redirect1" id="L-Check-Redirect1-0" d="M144.128,239.136L132.238,251.17C120.347,263.205,96.566,287.274,84.676,319.439C72.785,351.604,72.785,391.865,72.785,432.125C72.785,472.385,72.785,512.646,74.345,539.251C75.906,565.855,79.026,578.805,80.586,585.279L82.146,591.754"/><path marker-end="url(#my-svg_flowchart-pointEnd)" style="fill:none;" class="edge-thickness-normal edge-pattern-solid flowchart-link LS-Check LE-Validate" id="L-Check-Validate-0" d="M213.148,246.531L220.261,257.334C227.374,268.136,241.599,289.74,248.782,305.492C255.966,321.244,256.107,331.144,256.178,336.094L256.249,341.044"/><path marker-end="url(#my-svg_flowchart-pointEnd)" style="fill:none;" class="edge-thickness-normal edge-pattern-solid flowchart-link LS-Validate LE-Redirect1" id="L-Validate-Redirect1-0" d="M218.484,481.066L208.982,493.039C199.48,505.012,180.476,528.959,162.761,547.704C145.046,566.449,128.62,579.992,120.407,586.763L112.193,593.535"/><path marker-end="url(#my-svg_flowchart-pointEnd)" style="fill:none;" class="edge-thickness-normal edge-pattern-solid flowchart-link LS-Redirect1 LE-LoginPage" id="L-Redirect1-LoginPage-0" d="M87.484,630.906L87.484,636.656C87.484,642.406,87.484,653.906,87.484,668.24C87.484,682.573,87.484,699.74,87.484,716.906C87.484,734.073,87.484,751.24,87.484,769.99C87.484,788.74,87.484,809.073,87.484,829.406C87.484,849.74,87.484,870.073,87.484,888.823C87.484,907.573,87.484,924.74,87.484,941.906C87.484,959.073,87.484,976.24,87.484,993.406C87.484,1010.573,87.484,1027.74,87.484,1044.906C87.484,1062.073,87.484,1079.24,87.484,1096.406C87.484,1113.573,87.484,1130.74,87.484,1147.906C87.484,1165.073,87.484,1182.24,87.484,1197.823C87.484,1213.406,87.484,1227.406,87.484,1241.406C87.484,1255.406,87.484,1269.406,87.484,1284.99C87.484,1300.573,87.484,1317.74,87.484,1334.906C87.484,1352.073,87.484,1369.24,87.484,1384.823C87.484,1400.406,87.484,1414.406,87.484,1428.406C87.484,1442.406,87.484,1456.406,94.343,1467.15C101.201,1477.893,114.917,1485.38,121.776,1489.124L128.634,1492.867"/><path marker-end="url(#my-svg_flowchart-pointEnd)" style="fill:none;" class="edge-thickness-normal edge-pattern-solid flowchart-link LS-LoginPage LE-IsRegister" id="L-LoginPage-IsRegister-0" d="M181.836,1548.406L181.836,1552.573C181.836,1556.74,181.836,1565.073,181.902,1572.606C181.968,1580.14,182.1,1586.874,182.166,1590.24L182.232,1593.607"/><path marker-end="url(#my-svg_flowchart-pointEnd)" style="fill:none;" class="edge-thickness-normal edge-pattern-solid flowchart-link LS-IsRegister LE-Register" id="L-IsRegister-Register-0" d="M146.972,1708.917L135.855,1720.478C124.739,1732.038,102.506,1755.16,91.39,1771.587C80.273,1788.015,80.273,1797.748,80.273,1802.615L80.273,1807.481"/><path marker-end="url(#my-svg_flowchart-pointEnd)" style="fill:none;" class="edge-thickness-normal edge-pattern-solid flowchart-link LS-IsRegister LE-Login" id="L-IsRegister-Login-0" d="M217.7,1708.917L228.65,1720.478C239.6,1732.038,261.499,1755.16,272.449,1771.587C283.398,1788.015,283.398,1797.748,283.398,1802.615L283.398,1807.481"/><path marker-end="url(#my-svg_flowchart-pointEnd)" style="fill:none;" class="edge-thickness-normal edge-pattern-solid flowchart-link LS-Register LE-Token" id="L-Register-Token-0" d="M80.273,1865.781L80.273,1869.948C80.273,1874.115,80.273,1882.448,87.703,1890.382C95.132,1898.316,109.99,1905.85,117.419,1909.617L124.849,1913.384"/><path marker-end="url(#my-svg_flowchart-pointEnd)" style="fill:none;" class="edge-thickness-normal edge-pattern-solid flowchart-link LS-Login LE-Token" id="L-Login-Token-0" d="M283.398,1865.781L283.398,1869.948C283.398,1874.115,283.398,1882.448,275.969,1890.382C268.54,1898.316,253.682,1905.85,246.252,1909.617L238.823,1913.384"/><path marker-end="url(#my-svg_flowchart-pointEnd)" style="fill:none;" class="edge-thickness-normal edge-pattern-solid flowchart-link LS-Token LE-Store" id="L-Token-Store-0" d="M181.836,1968.781L181.836,1972.948C181.836,1977.115,181.836,1985.448,181.836,1992.898C181.836,2000.348,181.836,2006.915,181.836,2010.198L181.836,2013.481"/><path marker-end="url(#my-svg_flowchart-pointEnd)" style="fill:none;" class="edge-thickness-normal edge-pattern-solid flowchart-link LS-Store LE-AuthContext" id="L-Store-AuthContext-0" d="M181.836,2071.781L181.836,2075.948C181.836,2080.115,181.836,2088.448,181.836,2095.898C181.836,2103.348,181.836,2109.915,181.836,2113.198L181.836,2116.481"/><path marker-end="url(#my-svg_flowchart-pointEnd)" style="fill:none;" class="edge-thickness-normal edge-pattern-solid flowchart-link LS-Validate LE-Auth" id="L-Validate-Auth-0" d="M268.772,506.458L270.008,514.2C271.244,521.941,273.716,537.424,274.952,550.032C276.188,562.64,276.188,572.373,276.188,577.24L276.188,582.106"/><path marker-end="url(#my-svg_flowchart-pointEnd)" style="fill:none;" class="edge-thickness-normal edge-pattern-solid flowchart-link LS-Auth LE-Protected" id="L-Auth-Protected-0" d="M276.188,640.406L276.188,644.573C276.188,648.74,276.188,657.073,276.188,664.523C276.188,671.973,276.188,678.54,276.188,681.823L276.188,685.106"/><path marker-end="url(#my-svg_flowchart-pointEnd)" style="fill:none;" class="edge-thickness-normal edge-pattern-solid flowchart-link LS-Protected LE-API" id="L-Protected-API-0" d="M276.188,743.406L276.188,747.573C276.188,751.74,276.188,760.073,276.188,767.523C276.188,774.973,276.188,781.54,276.188,784.823L276.188,788.106"/><path marker-end="url(#my-svg_flowchart-pointEnd)" style="fill:none;" class="edge-thickness-normal edge-pattern-solid flowchart-link LS-API LE-Backend" id="L-API-Backend-0" d="M276.188,865.406L276.188,869.573C276.188,873.74,276.188,882.073,276.188,889.523C276.188,896.973,276.188,903.54,276.188,906.823L276.188,910.106"/><path marker-end="url(#my-svg_flowchart-pointEnd)" style="fill:none;" class="edge-thickness-normal edge-pattern-solid flowchart-link LS-Backend LE-Response" id="L-Backend-Response-0" d="M276.188,968.406L276.188,972.573C276.188,976.74,276.188,985.073,276.188,992.523C276.188,999.973,276.188,1006.54,276.188,1009.823L276.188,1013.106"/><path marker-end="url(#my-svg_flowchart-pointEnd)" style="fill:none;" class="edge-thickness-normal edge-pattern-solid flowchart-link LS-Response LE-UI" id="L-Response-UI-0" d="M276.188,1071.406L276.188,1075.573C276.188,1079.74,276.188,1088.073,276.188,1095.523C276.188,1102.973,276.188,1109.54,276.188,1112.823L276.188,1116.106"/><path marker-end="url(#my-svg_flowchart-pointEnd)" style="fill:none;" class="edge-thickness-normal edge-pattern-solid flowchart-link LS-UI LE-Logout" id="L-UI-Logout-0" d="M276.188,1174.406L276.188,1178.573C276.188,1182.74,276.188,1191.073,276.188,1198.523C276.188,1205.973,276.188,1212.54,276.188,1215.823L276.188,1219.106"/><path marker-end="url(#my-svg_flowchart-pointEnd)" style="fill:none;" class="edge-thickness-normal edge-pattern-solid flowchart-link LS-Logout LE-Clear" id="L-Logout-Clear-0" d="M276.188,1258.406L276.188,1262.573C276.188,1266.74,276.188,1275.073,276.188,1282.523C276.188,1289.973,276.188,1296.54,276.188,1299.823L276.188,1303.106"/><path marker-end="url(#my-svg_flowchart-pointEnd)" style="fill:none;" class="edge-thickness-normal edge-pattern-solid flowchart-link LS-Clear LE-Redirect2" id="L-Clear-Redirect2-0" d="M276.188,1361.406L276.188,1365.573C276.188,1369.74,276.188,1378.073,276.188,1385.523C276.188,1392.973,276.188,1399.54,276.188,1402.823L276.188,1406.106"/><path marker-end="url(#my-svg_flowchart-pointEnd)" style="fill:none;" class="edge-thickness-normal edge-pattern-solid flowchart-link LS-Redirect2 LE-LoginPage" id="L-Redirect2-LoginPage-0" d="M276.188,1445.406L276.188,1449.573C276.188,1453.74,276.188,1462.073,269.329,1469.983C262.471,1477.893,248.754,1485.38,241.896,1489.124L235.038,1492.867"/></g><g class="edgeLabels"><g class="edgeLabel"><g transform="translate(0, 0)" class="label"><foreignObject height="0" width="0"><div style="display: inline-block; white-space: nowrap;" xmlns="http://www.w3.org/1999/xhtml"><span class="edgeLabel"></span></div></foreignObject></g></g><g transform="translate(72.78515625, 432.125)" class="edgeLabel"><g transform="translate(-9.3984375, -9.5)" class="label"><foreignObject height="19" width="18.796875"><div style="display: inline-block; white-space: nowrap;" xmlns="http://www.w3.org/1999/xhtml"><span class="edgeLabel">No</span></div></foreignObject></g></g><g transform="translate(255.82421875, 311.34375)" class="edgeLabel"><g transform="translate(-11.328125, -9.5)" class="label"><foreignObject height="19" width="22.65625"><div style="display: inline-block; white-space: nowrap;" xmlns="http://www.w3.org/1999/xhtml"><span class="edgeLabel">Yes</span></div></foreignObject></g></g><g transform="translate(161.47265625, 552.90625)" class="edgeLabel"><g transform="translate(-9.3984375, -9.5)" class="label"><foreignObject height="19" width="18.796875"><div style="display: inline-block; white-space: nowrap;" xmlns="http://www.w3.org/1999/xhtml"><span class="edgeLabel">No</span></div></foreignObject></g></g><g class="edgeLabel"><g transform="translate(0, 0)" class="label"><foreignObject height="0" width="0"><div style="display: inline-block; white-space: nowrap;" xmlns="http://www.w3.org/1999/xhtml"><span class="edgeLabel"></span></div></foreignObject></g></g><g class="edgeLabel"><g transform="translate(0, 0)" class="label"><foreignObject height="0" width="0"><div style="display: inline-block; white-space: nowrap;" xmlns="http://www.w3.org/1999/xhtml"><span class="edgeLabel"></span></div></foreignObject></g></g><g transform="translate(80.2734375, 1778.28125)" class="edgeLabel"><g transform="translate(-28.875, -9.5)" class="label"><foreignObject height="19" width="57.75"><div style="display: inline-block; white-space: nowrap;" xmlns="http://www.w3.org/1999/xhtml"><span class="edgeLabel">Register</span></div></foreignObject></g></g><g transform="translate(283.3984375, 1778.28125)" class="edgeLabel"><g transform="translate(-19.015625, -9.5)" class="label"><foreignObject height="19" width="38.03125"><div style="display: inline-block; white-space: nowrap;" xmlns="http://www.w3.org/1999/xhtml"><span class="edgeLabel">Login</span></div></foreignObject></g></g><g class="edgeLabel"><g transform="translate(0, 0)" class="label"><foreignObject height="0" width="0"><div style="display: inline-block; white-space: nowrap;" xmlns="http://www.w3.org/1999/xhtml"><span class="edgeLabel"></span></div></foreignObject></g></g><g class="edgeLabel"><g transform="translate(0, 0)" class="label"><foreignObject height="0" width="0"><div style="display: inline-block; white-space: nowrap;" xmlns="http://www.w3.org/1999/xhtml"><span class="edgeLabel"></span></div></foreignObject></g></g><g class="edgeLabel"><g transform="translate(0, 0)" class="label"><foreignObject height="0" width="0"><div style="display: inline-block; white-space: nowrap;" xmlns="http://www.w3.org/1999/xhtml"><span class="edgeLabel"></span></div></foreignObject></g></g><g class="edgeLabel"><g transform="translate(0, 0)" class="label"><foreignObject height="0" width="0"><div style="display: inline-block; white-space: nowrap;" xmlns="http://www.w3.org/1999/xhtml"><span class="edgeLabel"></span></div></foreignObject></g></g><g transform="translate(276.1875, 552.90625)" class="edgeLabel"><g transform="translate(-11.328125, -9.5)" class="label"><foreignObject height="19" width="22.65625"><div style="display: inline-block; white-space: nowrap;" xmlns="http://www.w3.org/1999/xhtml"><span class="edgeLabel">Yes</span></div></foreignObject></g></g><g class="edgeLabel"><g transform="translate(0, 0)" class="label"><foreignObject height="0" width="0"><div style="display: inline-block; white-space: nowrap;" xmlns="http://www.w3.org/1999/xhtml"><span class="edgeLabel"></span></div></foreignObject></g></g><g class="edgeLabel"><g transform="translate(0, 0)" class="label"><foreignObject height="0" width="0"><div style="display: inline-block; white-space: nowrap;" xmlns="http://www.w3.org/1999/xhtml"><span class="edgeLabel"></span></div></foreignObject></g></g><g class="edgeLabel"><g transform="translate(0, 0)" class="label"><foreignObject height="0" width="0"><div style="display: inline-block; white-space: nowrap;" xmlns="http://www.w3.org/1999/xhtml"><span class="edgeLabel"></span></div></foreignObject></g></g><g class="edgeLabel"><g transform="translate(0, 0)" class="label"><foreignObject height="0" width="0"><div style="display: inline-block; white-space: nowrap;" xmlns="http://www.w3.org/1999/xhtml"><span class="edgeLabel"></span></div></foreignObject></g></g><g class="edgeLabel"><g transform="translate(0, 0)" class="label"><foreignObject height="0" width="0"><div style="display: inline-block; white-space: nowrap;" xmlns="http://www.w3.org/1999/xhtml"><span class="edgeLabel"></span></div></foreignObject></g></g><g class="edgeLabel"><g transform="translate(0, 0)" class="label"><foreignObject height="0" width="0"><div style="display: inline-block; white-space: nowrap;" xmlns="http://www.w3.org/1999/xhtml"><span class="edgeLabel"></span></div></foreignObject></g></g><g class="edgeLabel"><g transform="translate(0, 0)" class="label"><foreignObject height="0" width="0"><div style="display: inline-block; white-space: nowrap;" xmlns="http://www.w3.org/1999/xhtml"><span class="edgeLabel"></span></div></foreignObject></g></g><g class="edgeLabel"><g transform="translate(0, 0)" class="label"><foreignObject height="0" width="0"><div style="display: inline-block; white-space: nowrap;" xmlns="http://www.w3.org/1999/xhtml"><span class="edgeLabel"></span></div></foreignObject></g></g><g class="edgeLabel"><g transform="translate(0, 0)" class="label"><foreignObject height="0" width="0"><div style="display: inline-block; white-space: nowrap;" xmlns="http://www.w3.org/1999/xhtml"><span class="edgeLabel"></span></div></foreignObject></g></g></g><g class="nodes"><g transform="translate(181.8359375, 36)" data-id="Start" data-node="true" id="flowchart-Start-0" class="node default default flowchart-label"><rect height="72" width="198" y="-36" x="-99" ry="0" rx="0" style="fill:#e3f2fd;" class="basic label-container"/><g transform="translate(-91.5, -28.5)" style="" class="label"><rect/><foreignObject height="57" width="183"><div style="display: inline-block; white-space: nowrap;" xmlns="http://www.w3.org/1999/xhtml"><span class="nodeLabel">User visits dashboard<br />localhost:3002 (compose)<br />or localhost:3000 (dev)</span></div></foreignObject></g></g><g transform="translate(181.8359375, 199.421875)" data-id="Check" data-node="true" id="flowchart-Check-1" class="node default default flowchart-label"><polygon style="" transform="translate(-77.421875,77.421875)" class="label-container" points="77.421875,0 154.84375,-77.421875 77.421875,-154.84375 0,-77.421875"/><g transform="translate(-43.421875, -19)" style="" class="label"><rect/><foreignObject height="38" width="86.84375"><div style="display: inline-block; white-space: nowrap;" xmlns="http://www.w3.org/1999/xhtml"><span class="nodeLabel">Token exists<br />in cookie?</span></div></foreignObject></g></g><g transform="translate(87.484375, 613.90625)" data-id="Redirect1" data-node="true" id="flowchart-Redirect1-3" class="node default default flowchart-label"><rect height="34" width="142.6875" y="-17" x="-71.34375" ry="0" rx="0" style="" class="basic label-container"/><g transform="translate(-63.84375, -9.5)" style="" class="label"><rect/><foreignObject height="19" width="127.6875"><div style="display: inline-block; white-space: nowrap;" xmlns="http://www.w3.org/1999/xhtml"><span class="nodeLabel">Redirect to /login</span></div></foreignObject></g></g><g transform="translate(255.82421875, 432.125)" data-id="Validate" data-node="true" id="flowchart-Validate-5" class="node default default flowchart-label"><polygon style="" transform="translate(-86.28125,86.28125)" class="label-container" points="86.28125,0 172.5625,-86.28125 86.28125,-172.5625 0,-86.28125"/><g transform="translate(-52.28125, -19)" style="" class="label"><rect/><foreignObject height="38" width="104.5625"><div style="display: inline-block; white-space: nowrap;" xmlns="http://www.w3.org/1999/xhtml"><span class="nodeLabel">Token valid<br />&amp; not expired?</span></div></foreignObject></g></g><g transform="translate(181.8359375, 1521.90625)" data-id="LoginPage" data-node="true" id="flowchart-LoginPage-9" class="node default default flowchart-label"><rect height="53" width="107.84375" y="-26.5" x="-53.921875" ry="0" rx="0" style="fill:#fff3e0;" class="basic label-container"/><g transform="translate(-46.421875, -19)" style="" class="label"><rect/><foreignObject height="38" width="92.84375"><div style="display: inline-block; white-space: nowrap;" xmlns="http://www.w3.org/1999/xhtml"><span class="nodeLabel">Login Page<br />renders form</span></div></foreignObject></g></g><g transform="translate(181.8359375, 1671.09375)" data-id="IsRegister" data-node="true" id="flowchart-IsRegister-11" class="node default default flowchart-label"><polygon style="" transform="translate(-72.6875,72.6875)" class="label-container" points="72.6875,0 145.375,-72.6875 72.6875,-145.375 0,-72.6875"/><g transform="translate(-38.6875, -19)" style="" class="label"><rect/><foreignObject height="38" width="77.375"><div style="display: inline-block; white-space: nowrap;" xmlns="http://www.w3.org/1999/xhtml"><span class="nodeLabel">Register or<br />Login?</span></div></foreignObject></g></g><g transform="translate(80.2734375, 1839.28125)" data-id="Register" data-node="true" id="flowchart-Register-13" class="node default default flowchart-label"><rect height="53" width="160.546875" y="-26.5" x="-80.2734375" ry="0" rx="0" style="" class="basic label-container"/><g transform="translate(-72.7734375, -19)" style="" class="label"><rect/><foreignObject height="38" width="145.546875"><div style="display: inline-block; white-space: nowrap;" xmlns="http://www.w3.org/1999/xhtml"><span class="nodeLabel">POST /auth/register<br />Create org &amp; user</span></div></foreignObject></g></g><g transform="translate(283.3984375, 1839.28125)" data-id="Login" data-node="true" id="flowchart-Login-15" class="node default default flowchart-label"><rect height="53" width="145.703125" y="-26.5" x="-72.8515625" ry="0" rx="0" style="" class="basic label-container"/><g transform="translate(-65.3515625, -19)" style="" class="label"><rect/><foreignObject height="38" width="130.703125"><div style="display: inline-block; white-space: nowrap;" xmlns="http://www.w3.org/1999/xhtml"><span class="nodeLabel">POST /auth/token<br />Verify credentials</span></div></foreignObject></g></g><g transform="translate(181.8359375, 1942.28125)" data-id="Token" data-node="true" id="flowchart-Token-17" class="node default default flowchart-label"><rect height="53" width="158" y="-26.5" x="-79" ry="0" rx="0" style="fill:#e8f5e9;" class="basic label-container"/><g transform="translate(-71.5, -19)" style="" class="label"><rect/><foreignObject height="38" width="143"><div style="display: inline-block; white-space: nowrap;" xmlns="http://www.w3.org/1999/xhtml"><span class="nodeLabel">JWT token returned<br />+ org metadata</span></div></foreignObject></g></g><g transform="translate(181.8359375, 2045.28125)" data-id="Store" data-node="true" id="flowchart-Store-21" class="node default default flowchart-label"><rect height="53" width="163.875" y="-26.5" x="-81.9375" ry="0" rx="0" style="" class="basic label-container"/><g transform="translate(-74.4375, -19)" style="" class="label"><rect/><foreignObject height="38" width="148.875"><div style="display: inline-block; white-space: nowrap;" xmlns="http://www.w3.org/1999/xhtml"><span class="nodeLabel">Store in localStorage<br />&amp; httpOnly cookie</span></div></foreignObject></g></g><g transform="translate(181.8359375, 2157.78125)" data-id="AuthContext" data-node="true" id="flowchart-AuthContext-23" class="node default default flowchart-label"><rect height="72" width="137.515625" y="-36" x="-68.7578125" ry="0" rx="0" style="fill:#f3e5f5;" class="basic label-container"/><g transform="translate(-61.2578125, -28.5)" style="" class="label"><rect/><foreignObject height="57" width="122.515625"><div style="display: inline-block; white-space: nowrap;" xmlns="http://www.w3.org/1999/xhtml"><span class="nodeLabel">AuthProvider<br />decodes JWT<br />sets user context</span></div></foreignObject></g></g><g transform="translate(276.1875, 613.90625)" data-id="Auth" data-node="true" id="flowchart-Auth-25" class="node default default flowchart-label"><rect height="53" width="134.71875" y="-26.5" x="-67.359375" ry="0" rx="0" style="" class="basic label-container"/><g transform="translate(-59.859375, -19)" style="" class="label"><rect/><foreignObject height="38" width="119.71875"><div style="display: inline-block; white-space: nowrap;" xmlns="http://www.w3.org/1999/xhtml"><span class="nodeLabel">Authenticated<br />context restored</span></div></foreignObject></g></g><g transform="translate(276.1875, 716.90625)" data-id="Protected" data-node="true" id="flowchart-Protected-27" class="node default default flowchart-label"><rect height="53" width="189.09375" y="-26.5" x="-94.546875" ry="0" rx="0" style="fill:#e3f2fd;" class="basic label-container"/><g transform="translate(-87.046875, -19)" style="" class="label"><rect/><foreignObject height="38" width="174.09375"><div style="display: inline-block; white-space: nowrap;" xmlns="http://www.w3.org/1999/xhtml"><span class="nodeLabel">Access Protected Routes<br />/clusters, /incidents</span></div></foreignObject></g></g><g transform="translate(276.1875, 829.40625)" data-id="API" data-node="true" id="flowchart-API-29" class="node default default flowchart-label"><rect height="72" width="171.265625" y="-36" x="-85.6328125" ry="0" rx="0" style="" class="basic label-container"/><g transform="translate(-78.1328125, -28.5)" style="" class="label"><rect/><foreignObject height="57" width="156.265625"><div style="display: inline-block; white-space: nowrap;" xmlns="http://www.w3.org/1999/xhtml"><span class="nodeLabel">api() helper<br />includes Bearer token<br />in requests</span></div></foreignObject></g></g><g transform="translate(276.1875, 941.90625)" data-id="Backend" data-node="true" id="flowchart-Backend-31" class="node default default flowchart-label"><rect height="53" width="144.046875" y="-26.5" x="-72.0234375" ry="0" rx="0" style="" class="basic label-container"/><g transform="translate(-64.5234375, -19)" style="" class="label"><rect/><foreignObject height="38" width="129.046875"><div style="display: inline-block; white-space: nowrap;" xmlns="http://www.w3.org/1999/xhtml"><span class="nodeLabel">Backend validates<br />token &amp; org_id</span></div></foreignObject></g></g><g transform="translate(276.1875, 1044.90625)" data-id="Response" data-node="true" id="flowchart-Response-33" class="node default default flowchart-label"><rect height="53" width="111.953125" y="-26.5" x="-55.9765625" ry="0" rx="0" style="" class="basic label-container"/><g transform="translate(-48.4765625, -19)" style="" class="label"><rect/><foreignObject height="38" width="96.953125"><div style="display: inline-block; white-space: nowrap;" xmlns="http://www.w3.org/1999/xhtml"><span class="nodeLabel">Return data<br />scoped to org</span></div></foreignObject></g></g><g transform="translate(276.1875, 1147.90625)" data-id="UI" data-node="true" id="flowchart-UI-35" class="node default default flowchart-label"><rect height="53" width="180.5" y="-26.5" x="-90.25" ry="0" rx="0" style="" class="basic label-container"/><g transform="translate(-82.75, -19)" style="" class="label"><rect/><foreignObject height="38" width="165.5"><div style="display: inline-block; white-space: nowrap;" xmlns="http://www.w3.org/1999/xhtml"><span class="nodeLabel">Dashboard displays<br />cluster &amp; incident data</span></div></foreignObject></g></g><g transform="translate(276.1875, 1241.40625)" data-id="Logout" data-node="true" id="flowchart-Logout-37" class="node default default flowchart-label"><rect height="34" width="144.5" y="-17" x="-72.25" ry="0" rx="0" style="fill:#ffebee;" class="basic label-container"/><g transform="translate(-64.75, -9.5)" style="" class="label"><rect/><foreignObject height="19" width="129.5"><div style="display: inline-block; white-space: nowrap;" xmlns="http://www.w3.org/1999/xhtml"><span class="nodeLabel">User clicks Logout</span></div></foreignObject></g></g><g transform="translate(276.1875, 1334.90625)" data-id="Clear" data-node="true" id="flowchart-Clear-39" class="node default default flowchart-label"><rect height="53" width="174" y="-26.5" x="-87" ry="0" rx="0" style="" class="basic label-container"/><g transform="translate(-79.5, -19)" style="" class="label"><rect/><foreignObject height="38" width="159"><div style="display: inline-block; white-space: nowrap;" xmlns="http://www.w3.org/1999/xhtml"><span class="nodeLabel">Clear token<br />from storage &amp; cookie</span></div></foreignObject></g></g><g transform="translate(276.1875, 1428.40625)" data-id="Redirect2" data-node="true" id="flowchart-Redirect2-41" class="node default default flowchart-label"><rect height="34" width="142.6875" y="-17" x="-71.34375" ry="0" rx="0" style="" class="basic label-container"/><g transform="translate(-63.84375, -9.5)" style="" class="label"><rect/><foreignObject height="19" width="127.6875"><div style="display: inline-block; white-space: nowrap;" xmlns="http://www.w3.org/1999/xhtml"><span class="nodeLabel">Redirect to /login</span></div></foreignObject></g></g></g></g></g></svg>