<svg aria-roledescription="flowchart-v2" role="graphics-document document" viewBox="-8 -8 347.81298828125 1762.859375" style="max-width: 347.813px; background-color: white;" xmlns:xlink="http://www.w3.org/1999/xlink" xmlns="http://www.w3.org/2000/svg" width="100%" id="my-svg"><style>#my-svg{font-family:"trebuchet ms",verdana,arial,sans-serif;font-size:16px;fill:#ccc;}#my-svg .error-icon{fill:#a44141;}#my-svg .error-text{fill:#ddd;stroke:#ddd;}#my-svg .edge-thickness-normal{stroke-width:2px;}#my-svg .edge-thickness-thick{stroke-width:3.5px;}#my-svg .edge-pattern-solid{stroke-dasharray:0;}#my-svg .edge-pattern-dashed{stroke-dasharray:3;}#my-svg .edge-pattern-dotted{stroke-dasharray:2;}#my-svg .marker{fill:lightgrey;stroke:lightgrey;}#my-svg .marker.cross{stroke:lightgrey;}#my-svg svg{font-family:"trebuchet ms",verdana,arial,sans-serif;font-size:16px;}#my-svg .label{font-family:"trebuchet ms",verdana,arial,sans-serif;color:#ccc;}#my-svg .cluster-label text{fill:#F9FFFE;}#my-svg .cluster-label span,#my-svg p{color:#F9FFFE;}#my-svg .label text,#my-svg span,#my-svg p{fill:#ccc;color:#ccc;}#my-svg .node rect,#my-svg .node circle,#my-svg .node ellipse,#my-svg .node polygon,#my-svg .node path{fill:#1f2020;stroke:#81B1DB;stroke-width:1px;}#my-svg .flowchart-label text{text-anchor:middle;}#my-svg .node .katex path{fill:#000;stroke:#000;stroke-width:1px;}#my-svg .node .label{text-align:center;}#my-svg .node.clickable{cursor:pointer;}#my-svg .arrowheadPath{fill:lightgrey;}#my-svg .edgePath .path{stroke:lightgrey;stroke-width:2.0px;}#my-svg .flowchart-link{stroke:lightgrey;fill:none;}#my-svg .edgeLabel{background-color:hsl(0, 0%, 34.4117647059%);text-align:center;}#my-svg .edgeLabel rect{opacity:0.5;background-color:hsl(0, 0%, 34.4117647059%);fill:hsl(0, 0%, 34.4117647059%);}#my-svg .labelBkg{background-color:rgba(87.75, 87.75, 87.75, 0.5);}#my-svg .cluster rect{fill:hsl(180, 1.5873015873%, 28.3529411765%);stroke:rgba(255, 255, 255, 0.25);stroke-width:1px;}#my-svg .cluster text{fill:#F9FFFE;}#my-svg .cluster span,#my-svg p{color:#F9FFFE;}#my-svg div.mermaidTooltip{position:absolute;text-align:center;max-width:200px;padding:2px;font-family:"trebuchet ms",verdana,arial,sans-serif;font-size:12px;background:hsl(20, 1.5873015873%, 12.3529411765%);border:1px solid rgba(255, 255, 255, 0.25);border-radius:2px;pointer-events:none;z-index:100;}#my-svg .flowchartTitleText{text-anchor:middle;font-size:18px;fill:#ccc;}#my-svg :root{--mermaid-font-family:"trebuchet ms",verdana,arial,sans-serif;}</style><g><marker orient="auto" markerHeight="12" markerWidth="12" markerUnits="userSpaceOnUse" refY="5" refX="6" viewBox="0 0 10 10" class="marker flowchart" id="my-svg_flowchart-pointEnd"><path style="stroke-width: 1; stroke-dasharray: 1, 0;" class="arrowMarkerPath" d="M 0 0 L 10 5 L 0 10 z"/></marker><marker orient="auto" markerHeight="12" markerWidth="12" markerUnits="userSpaceOnUse" refY="5" refX="4.5" viewBox="0 0 10 10" class="marker flowchart" id="my-svg_flowchart-pointStart"><path style="stroke-width: 1; stroke-dasharray: 1, 0;" class="arrowMarkerPath" d="M 0 5 L 10 10 L 10 0 z"/></marker><marker orient="auto" markerHeight="11" markerWidth="11" markerUnits="userSpaceOnUse" refY="5" refX="11" viewBox="0 0 10 10" class="marker flowchart" id="my-svg_flowchart-circleEnd"><circle style="stroke-width: 1; stroke-dasharray: 1, 0;" class="arrowMarkerPath" r="5" cy="5" cx="5"/></marker><marker orient="auto" markerHeight="11" markerWidth="11" markerUnits="userSpaceOnUse" refY="5" refX="-1" viewBox="0 0 10 10" class="marker flowchart" id="my-svg_flowchart-circleStart"><circle style="stroke-width: 1; stroke-dasharray: 1, 0;" class="arrowMarkerPath" r="5" cy="5" cx="5"/></marker><marker orient="auto" markerHeight="11" markerWidth="11" markerUnits="userSpaceOnUse" refY="5.2" refX="12" viewBox="0 0 11 11" class="marker cross flowchart" id="my-svg_flowchart-crossEnd"><path style="stroke-width: 2; stroke-dasharray: 1, 0;" class="arrowMarkerPath" d="M 1,1 l 9,9 M 10,1 l -9,9"/></marker><marker orient="auto" markerHeight="11" markerWidth="11" markerUnits="userSpaceOnUse" refY="5.2" refX="-1" viewBox="0 0 11 11" class="marker cross flowchart" id="my-svg_flowchart-crossStart"><path style="stroke-width: 2; stroke-dasharray: 1, 0;" class="arrowMarkerPath" d="M 1,1 l 9,9 M 10,1 l -9,9"/></marker><g class="root"><g class="clusters"/><g class="edgePaths"><path marker-end="url(#my-svg_flowchart-pointEnd)" style="fill:none;" class="edge-thickness-normal edge-pattern-solid flowchart-link LS-One LE-Two" id="L-One-Two-0" d="M247.824,53L247.824,57.167C247.824,61.333,247.824,69.667,247.824,77.117C247.824,84.567,247.824,91.133,247.824,94.417L247.824,97.7"/><path marker-end="url(#my-svg_flowchart-pointEnd)" style="fill:none;" class="edge-thickness-normal edge-pattern-solid flowchart-link LS-Two LE-Three" id="L-Two-Three-0" d="M201.879,175L196.561,179.167C191.244,183.333,180.608,191.667,175.29,199.117C169.973,206.567,169.973,213.133,169.973,216.417L169.973,219.7"/><path marker-end="url(#my-svg_flowchart-pointEnd)" style="fill:none;" class="edge-thickness-normal edge-pattern-solid flowchart-link LS-Three LE-Four" id="L-Three-Four-0" d="M169.973,278L169.973,282.167C169.973,286.333,169.973,294.667,169.973,302.117C169.973,309.567,169.973,316.133,169.973,319.417L169.973,322.7"/><path marker-end="url(#my-svg_flowchart-pointEnd)" style="fill:none;" class="edge-thickness-normal edge-pattern-solid flowchart-link LS-Four LE-Five" id="L-Four-Five-0" d="M169.973,400L169.973,404.167C169.973,408.333,169.973,416.667,169.973,424.117C169.973,431.567,169.973,438.133,169.973,441.417L169.973,444.7"/><path marker-end="url(#my-svg_flowchart-pointEnd)" style="fill:none;" class="edge-thickness-normal edge-pattern-solid flowchart-link LS-Five LE-Six" id="L-Five-Six-0" d="M134.816,503L129.288,507.167C123.76,511.333,112.704,519.667,107.176,527.117C101.648,534.567,101.648,541.133,101.648,544.417L101.648,547.7"/><path marker-end="url(#my-svg_flowchart-pointEnd)" style="fill:none;" class="edge-thickness-normal edge-pattern-solid flowchart-link LS-Six LE-Seven" id="L-Six-Seven-0" d="M101.648,625L101.648,630.75C101.648,636.5,101.648,648,101.648,658.617C101.648,669.233,101.648,678.967,101.648,683.833L101.648,688.7"/><path marker-end="url(#my-svg_flowchart-pointEnd)" style="fill:none;" class="edge-thickness-normal edge-pattern-solid flowchart-link LS-Seven LE-Decision" id="L-Seven-Decision-0" d="M101.648,766L101.648,770.167C101.648,774.333,101.648,782.667,107.195,795.791C112.742,808.916,123.836,826.831,129.383,835.789L134.93,844.747"/><path marker-end="url(#my-svg_flowchart-pointEnd)" style="fill:none;" class="edge-thickness-normal edge-pattern-solid flowchart-link LS-Decision LE-Five" id="L-Decision-Five-0" d="M203.226,849.253L209.071,839.544C214.916,829.835,226.606,810.418,232.452,790.542C238.297,770.667,238.297,750.333,238.297,728.417C238.297,706.5,238.297,683,238.297,659.5C238.297,636,238.297,612.5,238.297,590.583C238.297,568.667,238.297,548.333,233.474,534.532C228.652,520.73,219.007,513.46,214.185,509.825L209.362,506.19"/><path marker-end="url(#my-svg_flowchart-pointEnd)" style="fill:none;" class="edge-thickness-normal edge-pattern-solid flowchart-link LS-Decision LE-Eight" id="L-Decision-Eight-0" d="M170.473,988.359L170.389,994.026C170.306,999.693,170.139,1011.026,170.056,1021.559C169.973,1032.093,169.973,1041.826,169.973,1046.693L169.973,1051.559"/><path marker-end="url(#my-svg_flowchart-pointEnd)" style="fill:none;" class="edge-thickness-normal edge-pattern-solid flowchart-link LS-Eight LE-Nine" id="L-Eight-Nine-0" d="M169.973,1109.859L169.973,1114.026C169.973,1118.193,169.973,1126.526,169.973,1133.976C169.973,1141.426,169.973,1147.993,169.973,1151.276L169.973,1154.559"/><path marker-end="url(#my-svg_flowchart-pointEnd)" style="fill:none;" class="edge-thickness-normal edge-pattern-solid flowchart-link LS-Nine LE-Ten" id="L-Nine-Ten-0" d="M169.973,1212.859L169.973,1217.026C169.973,1221.193,169.973,1229.526,169.973,1236.976C169.973,1244.426,169.973,1250.993,169.973,1254.276L169.973,1257.559"/><path marker-end="url(#my-svg_flowchart-pointEnd)" style="fill:none;" class="edge-thickness-normal edge-pattern-solid flowchart-link LS-Ten LE-Eleven" id="L-Ten-Eleven-0" d="M169.973,1315.859L169.973,1320.026C169.973,1324.193,169.973,1332.526,169.973,1339.976C169.973,1347.426,169.973,1353.993,169.973,1357.276L169.973,1360.559"/><path marker-end="url(#my-svg_flowchart-pointEnd)" style="fill:none;" class="edge-thickness-normal edge-pattern-solid flowchart-link LS-Eleven LE-Twelve" id="L-Eleven-Twelve-0" d="M169.973,1418.859L169.973,1423.026C169.973,1427.193,169.973,1435.526,169.973,1442.976C169.973,1450.426,169.973,1456.993,169.973,1460.276L169.973,1463.559"/><path marker-end="url(#my-svg_flowchart-pointEnd)" style="fill:none;" class="edge-thickness-normal edge-pattern-solid flowchart-link LS-Twelve LE-Thirteen" id="L-Twelve-Thirteen-0" d="M169.973,1540.859L169.973,1545.026C169.973,1549.193,169.973,1557.526,169.973,1564.976C169.973,1572.426,169.973,1578.993,169.973,1582.276L169.973,1585.559"/><path marker-end="url(#my-svg_flowchart-pointEnd)" style="fill:none;" class="edge-thickness-normal edge-pattern-solid flowchart-link LS-Thirteen LE-Resume" id="L-Thirteen-Resume-0" d="M169.973,1643.859L169.973,1648.026C169.973,1652.193,169.973,1660.526,175.535,1668.372C181.097,1676.218,192.22,1683.577,197.782,1687.256L203.344,1690.935"/><path marker-end="url(#my-svg_flowchart-pointEnd)" style="fill:none;" class="edge-thickness-normal edge-pattern-solid flowchart-link LS-Resume LE-Two" id="L-Resume-Two-0" d="M291.041,1693.859L297.837,1689.693C304.632,1685.526,318.222,1677.193,325.017,1664.443C331.813,1651.693,331.813,1634.526,331.813,1617.359C331.813,1600.193,331.813,1583.026,331.813,1564.276C331.813,1545.526,331.813,1525.193,331.813,1504.859C331.813,1484.526,331.813,1464.193,331.813,1445.443C331.813,1426.693,331.813,1409.526,331.813,1392.359C331.813,1375.193,331.813,1358.026,331.813,1340.859C331.813,1323.693,331.813,1306.526,331.813,1289.359C331.813,1272.193,331.813,1255.026,331.813,1237.859C331.813,1220.693,331.813,1203.526,331.813,1186.359C331.813,1169.193,331.813,1152.026,331.813,1134.859C331.813,1117.693,331.813,1100.526,331.813,1081.776C331.813,1063.026,331.813,1042.693,331.813,1012.454C331.813,982.216,331.813,942.073,331.813,903.513C331.813,864.953,331.813,827.977,331.813,799.322C331.813,770.667,331.813,750.333,331.813,728.417C331.813,706.5,331.813,683,331.813,659.5C331.813,636,331.813,612.5,331.813,590.583C331.813,568.667,331.813,548.333,331.813,529.583C331.813,510.833,331.813,493.667,331.813,476.5C331.813,459.333,331.813,442.167,331.813,423.417C331.813,404.667,331.813,384.333,331.813,364C331.813,343.667,331.813,323.333,331.813,304.583C331.813,285.833,331.813,268.667,331.813,251.5C331.813,234.333,331.813,217.167,326.79,204.936C321.768,192.705,311.724,185.41,306.702,181.762L301.679,178.115"/></g><g class="edgeLabels"><g class="edgeLabel"><g transform="translate(0, 0)" class="label"><foreignObject height="0" width="0"><div style="display: inline-block; white-space: nowrap;" xmlns="http://www.w3.org/1999/xhtml"><span class="edgeLabel"></span></div></foreignObject></g></g><g class="edgeLabel"><g transform="translate(0, 0)" class="label"><foreignObject height="0" width="0"><div style="display: inline-block; white-space: nowrap;" xmlns="http://www.w3.org/1999/xhtml"><span class="edgeLabel"></span></div></foreignObject></g></g><g class="edgeLabel"><g transform="translate(0, 0)" class="label"><foreignObject height="0" width="0"><div style="display: inline-block; white-space: nowrap;" xmlns="http://www.w3.org/1999/xhtml"><span class="edgeLabel"></span></div></foreignObject></g></g><g class="edgeLabel"><g transform="translate(0, 0)" class="label"><foreignObject height="0" width="0"><div style="display: inline-block; white-space: nowrap;" xmlns="http://www.w3.org/1999/xhtml"><span class="edgeLabel"></span></div></foreignObject></g></g><g class="edgeLabel"><g transform="translate(0, 0)" class="label"><foreignObject height="0" width="0"><div style="display: inline-block; white-space: nowrap;" xmlns="http://www.w3.org/1999/xhtml"><span class="edgeLabel"></span></div></foreignObject></g></g><g class="edgeLabel"><g transform="translate(0, 0)" class="label"><foreignObject height="0" width="0"><div style="display: inline-block; white-space: nowrap;" xmlns="http://www.w3.org/1999/xhtml"><span class="edgeLabel"></span></div></foreignObject></g></g><g class="edgeLabel"><g transform="translate(0, 0)" class="label"><foreignObject height="0" width="0"><div style="display: inline-block; white-space: nowrap;" xmlns="http://www.w3.org/1999/xhtml"><span class="edgeLabel"></span></div></foreignObject></g></g><g transform="translate(238.296875, 659.5)" class="edgeLabel"><g transform="translate(-11.328125, -9.5)" class="label"><foreignObject height="19" width="22.65625"><div style="display: inline-block; white-space: nowrap;" xmlns="http://www.w3.org/1999/xhtml"><span class="edgeLabel">Yes</span></div></foreignObject></g></g><g transform="translate(169.97265625, 1022.359375)" class="edgeLabel"><g transform="translate(-9.3984375, -9.5)" class="label"><foreignObject height="19" width="18.796875"><div style="display: inline-block; white-space: nowrap;" xmlns="http://www.w3.org/1999/xhtml"><span class="edgeLabel">No</span></div></foreignObject></g></g><g class="edgeLabel"><g transform="translate(0, 0)" class="label"><foreignObject height="0" width="0"><div style="display: inline-block; white-space: nowrap;" xmlns="http://www.w3.org/1999/xhtml"><span class="edgeLabel"></span></div></foreignObject></g></g><g class="edgeLabel"><g transform="translate(0, 0)" class="label"><foreignObject height="0" width="0"><div style="display: inline-block; white-space: nowrap;" xmlns="http://www.w3.org/1999/xhtml"><span class="edgeLabel"></span></div></foreignObject></g></g><g class="edgeLabel"><g transform="translate(0, 0)" class="label"><foreignObject height="0" width="0"><div style="display: inline-block; white-space: nowrap;" xmlns="http://www.w3.org/1999/xhtml"><span class="edgeLabel"></span></div></foreignObject></g></g><g class="edgeLabel"><g transform="translate(0, 0)" class="label"><foreignObject height="0" width="0"><div style="display: inline-block; white-space: nowrap;" xmlns="http://www.w3.org/1999/xhtml"><span class="edgeLabel"></span></div></foreignObject></g></g><g class="edgeLabel"><g transform="translate(0, 0)" class="label"><foreignObject height="0" width="0"><div style="display: inline-block; white-space: nowrap;" xmlns="http://www.w3.org/1999/xhtml"><span class="edgeLabel"></span></div></foreignObject></g></g><g class="edgeLabel"><g transform="translate(0, 0)" class="label"><foreignObject height="0" width="0"><div style="display: inline-block; white-space: nowrap;" xmlns="http://www.w3.org/1999/xhtml"><span class="edgeLabel"></span></div></foreignObject></g></g><g class="edgeLabel"><g transform="translate(0, 0)" class="label"><foreignObject height="0" width="0"><div style="display: inline-block; white-space: nowrap;" xmlns="http://www.w3.org/1999/xhtml"><span class="edgeLabel"></span></div></foreignObject></g></g></g><g class="nodes"><g transform="translate(247.82421875, 26.5)" data-id="One" data-node="true" id="flowchart-One-0" class="node default default flowchart-label"><rect height="53" width="154.21875" y="-26.5" x="-77.109375" ry="0" rx="0" style="fill:#e1f5ff;" class="basic label-container"/><g transform="translate(-69.609375, -19)" style="" class="label"><rect/><foreignObject height="38" width="139.21875"><div style="display: inline-block; white-space: nowrap;" xmlns="http://www.w3.org/1999/xhtml"><span class="nodeLabel">1. Incident Created<br />or Alert Arrives</span></div></foreignObject></g></g><g transform="translate(247.82421875, 139)" data-id="Two" data-node="true" id="flowchart-Two-1" class="node default default flowchart-label"><rect height="72" width="167.53125" y="-36" x="-83.765625" ry="0" rx="0" style="" class="basic label-container"/><g transform="translate(-76.265625, -28.5)" style="" class="label"><rect/><foreignObject height="57" width="152.53125"><div style="display: inline-block; white-space: nowrap;" xmlns="http://www.w3.org/1999/xhtml"><span class="nodeLabel">2. Dashboard sends<br />follow-up message or<br />user initiates</span></div></foreignObject></g></g><g transform="translate(169.97265625, 251.5)" data-id="Three" data-node="true" id="flowchart-Three-2" class="node default default flowchart-label"><rect height="53" width="166.25" y="-26.5" x="-83.125" ry="0" rx="0" style="" class="basic label-container"/><g transform="translate(-75.625, -19)" style="" class="label"><rect/><foreignObject height="38" width="151.25"><div style="display: inline-block; white-space: nowrap;" xmlns="http://www.w3.org/1999/xhtml"><span class="nodeLabel">3. Invocation queued<br />to sre_agent runtime</span></div></foreignObject></g></g><g transform="translate(169.97265625, 364)" data-id="Four" data-node="true" id="flowchart-Four-3" class="node default default flowchart-label"><rect height="72" width="192.390625" y="-36" x="-96.1953125" ry="0" rx="0" style="" class="basic label-container"/><g transform="translate(-88.6953125, -28.5)" style="" class="label"><rect/><foreignObject height="57" width="177.390625"><div style="display: inline-block; white-space: nowrap;" xmlns="http://www.w3.org/1999/xhtml"><span class="nodeLabel">4. Graph initializes state<br />with incident context<br />&amp; MCP tools</span></div></foreignObject></g></g><g transform="translate(169.97265625, 476.5)" data-id="Five" data-node="true" id="flowchart-Five-4" class="node default default flowchart-label"><rect height="53" width="162.28125" y="-26.5" x="-81.140625" ry="0" rx="0" style="" class="basic label-container"/><g transform="translate(-73.640625, -19)" style="" class="label"><rect/><foreignObject height="38" width="147.28125"><div style="display: inline-block; white-space: nowrap;" xmlns="http://www.w3.org/1999/xhtml"><span class="nodeLabel">5. Supervisor selects<br />next specialist step</span></div></foreignObject></g></g><g transform="translate(101.6484375, 589)" data-id="Six" data-node="true" id="flowchart-Six-5" class="node default default flowchart-label"><rect height="72" width="202.796875" y="-36" x="-101.3984375" ry="0" rx="0" style="" class="basic label-container"/><g transform="translate(-93.8984375, -28.5)" style="" class="label"><rect/><foreignObject height="57" width="187.796875"><div style="display: inline-block; white-space: nowrap;" xmlns="http://www.w3.org/1999/xhtml"><span class="nodeLabel">6. Selected specialist runs<br />(K8s, metrics, logs,<br />code, or runbooks)</span></div></foreignObject></g></g><g transform="translate(101.6484375, 730)" data-id="Seven" data-node="true" id="flowchart-Seven-6" class="node default default flowchart-label"><rect height="72" width="203.296875" y="-36" x="-101.6484375" ry="0" rx="0" style="" class="basic label-container"/><g transform="translate(-94.1484375, -28.5)" style="" class="label"><rect/><foreignObject height="57" width="188.296875"><div style="display: inline-block; white-space: nowrap;" xmlns="http://www.w3.org/1999/xhtml"><span class="nodeLabel">7. Supervisor reviews<br />new evidence and decides<br />continue or summarize</span></div></foreignObject></g></g><g transform="translate(169.97265625, 901.9296875)" data-id="Decision" data-node="true" id="flowchart-Decision-7" class="node default default flowchart-label"><polygon style="fill:#ffe0b2;" transform="translate(-85.9296875,85.9296875)" class="label-container" points="85.9296875,0 171.859375,-85.9296875 85.9296875,-171.859375 0,-85.9296875"/><g transform="translate(-51.9296875, -19)" style="" class="label"><rect/><foreignObject height="38" width="103.859375"><div style="display: inline-block; white-space: nowrap;" xmlns="http://www.w3.org/1999/xhtml"><span class="nodeLabel">More evidence<br />needed?</span></div></foreignObject></g></g><g transform="translate(169.97265625, 1083.359375)" data-id="Eight" data-node="true" id="flowchart-Eight-8" class="node default default flowchart-label"><rect height="53" width="192.09375" y="-26.5" x="-96.046875" ry="0" rx="0" style="fill:#e8f5e9;" class="basic label-container"/><g transform="translate(-88.546875, -19)" style="" class="label"><rect/><foreignObject height="38" width="177.09375"><div style="display: inline-block; white-space: nowrap;" xmlns="http://www.w3.org/1999/xhtml"><span class="nodeLabel">8. Aggregate node builds<br />executive summary</span></div></foreignObject></g></g><g transform="translate(169.97265625, 1186.359375)" data-id="Nine" data-node="true" id="flowchart-Nine-9" class="node default default flowchart-label"><rect height="53" width="241.40625" y="-26.5" x="-120.703125" ry="0" rx="0" style="" class="basic label-container"/><g transform="translate(-113.203125, -19)" style="" class="label"><rect/><foreignObject height="38" width="226.40625"><div style="display: inline-block; white-space: nowrap;" xmlns="http://www.w3.org/1999/xhtml"><span class="nodeLabel">9. Timeline + incident summary<br />persisted to PostgreSQL</span></div></foreignObject></g></g><g transform="translate(169.97265625, 1289.359375)" data-id="Ten" data-node="true" id="flowchart-Ten-10" class="node default default flowchart-label"><rect height="53" width="212.8125" y="-26.5" x="-106.40625" ry="0" rx="0" style="" class="basic label-container"/><g transform="translate(-98.90625, -19)" style="" class="label"><rect/><foreignObject height="38" width="197.8125"><div style="display: inline-block; white-space: nowrap;" xmlns="http://www.w3.org/1999/xhtml"><span class="nodeLabel">10. Live state/logs updated<br />for polling and follow-up</span></div></foreignObject></g></g><g transform="translate(169.97265625, 1392.359375)" data-id="Eleven" data-node="true" id="flowchart-Eleven-11" class="node default default flowchart-label"><rect height="53" width="175.25" y="-26.5" x="-87.625" ry="0" rx="0" style="" class="basic label-container"/><g transform="translate(-80.125, -19)" style="" class="label"><rect/><foreignObject height="38" width="160.25"><div style="display: inline-block; white-space: nowrap;" xmlns="http://www.w3.org/1999/xhtml"><span class="nodeLabel">11. Response returned<br />to dashboard</span></div></foreignObject></g></g><g transform="translate(169.97265625, 1504.859375)" data-id="Twelve" data-node="true" id="flowchart-Twelve-12" class="node default default flowchart-label"><rect height="72" width="178.296875" y="-36" x="-89.1484375" ry="0" rx="0" style="fill:#f3e5f5;" class="basic label-container"/><g transform="translate(-81.6484375, -28.5)" style="" class="label"><rect/><foreignObject height="57" width="163.296875"><div style="display: inline-block; white-space: nowrap;" xmlns="http://www.w3.org/1999/xhtml"><span class="nodeLabel">12. Dashboard updates<br />incident panel<br />&amp; transcript</span></div></foreignObject></g></g><g transform="translate(169.97265625, 1617.359375)" data-id="Thirteen" data-node="true" id="flowchart-Thirteen-13" class="node default default flowchart-label"><rect height="53" width="226.71875" y="-26.5" x="-113.359375" ry="0" rx="0" style="fill:#fff3e0;" class="basic label-container"/><g transform="translate(-105.859375, -19)" style="" class="label"><rect/><foreignObject height="38" width="211.71875"><div style="display: inline-block; white-space: nowrap;" xmlns="http://www.w3.org/1999/xhtml"><span class="nodeLabel">13. Operator reviews findings<br />and decides on remediation</span></div></foreignObject></g></g><g transform="translate(247.82421875, 1720.359375)" data-id="Resume" data-node="true" id="flowchart-Resume-14" class="node default default flowchart-label"><rect height="53" width="147.90625" y="-26.5" x="-73.953125" ry="0" rx="0" style="fill:#fff3e0;" class="basic label-container"/><g transform="translate(-66.453125, -19)" style="" class="label"><rect/><foreignObject height="38" width="132.90625"><div style="display: inline-block; white-space: nowrap;" xmlns="http://www.w3.org/1999/xhtml"><span class="nodeLabel">User sends<br />follow-up message</span></div></foreignObject></g></g></g></g></g></svg>